<svg width="64" height="64" xmlns="http://www.w3.org/2000/svg" viewBox="0 0 64 64" shape-rendering="crispEdges"><path fill="#EAFFF2" d="M21 6h4v2h-4zM20 7h1v1h-1zM25 7h2v2h-2zM27 8h4v2h-4zM31 9h2v3h-2zM29 10h2v1h-2zM33 11h2v2h-2zM35 12h2v3h-2zM37 13h2v4h-2zM39 15h2v4h-2zM41 17h1v4h-1zM42 19h1v6h-1zM43 21h1v6h-1zM44 25h1v12h-1zM45 27h1v11h-1zM41 46h1v4h-1zM39 47h2v4h-2zM38 48h1v4h-1z"></path><path fill="#B4F0CC" d="M20 8h5v2h-5zM25 9h2v2h-2zM27 10h2v2h-2zM29 11h2v2h-2zM31 12h2v2h-2zM33 13h2v2h-2zM35 15h2v2h-2zM37 17h2v2h-2zM38 19h3v2h-3zM39 21h3v2h-3zM40 23h2v2h-2zM41 25h2v2h-2zM42 27h2v10h-2zM43 37h2v2h-2zM45 38h1v1h-1zM44 39h1v1h-1zM40 42h4v3h-4zM39 45h4v1h-4zM39 46h2v1h-2zM38 47h1v1h-1zM42 48h4v2h-4zM37 50h1v2h-1zM35 51h2v2h-2zM40 52h2v4h-2zM34 53h1v1h-1z"></path><path fill="#7BD8A0" d="M20 10h5v2h-5zM25 11h2v2h-2zM27 12h2v2h-2zM29 13h2v2h-2zM31 14h2v3h-2zM33 15h2v3h-2zM35 17h2v2h-2zM36 19h2v2h-2zM37 21h2v2h-2zM38 23h2v2h-2zM39 25h2v2h-2zM40 27h2v10h-2zM41 37h2v1h-2zM42 38h1v4h-1zM43 39h1v3h-1zM41 40h1v2h-1zM40 41h1v1h-1zM39 44h1v1h-1zM37 45h2v2h-2zM36 47h2v3h-2zM46 48h2v2h-2zM35 49h1v2h-1zM34 50h1v3h-1zM36 50h1v1h-1zM33 51h1v3h-1zM32 52h1v2h-1zM40 56h2v2h-2z"></path><path fill="#2E7A54" d="M20 12h5v1h-5zM21 13h6v1h-6zM23 14h6v1h-6zM25 15h6v1h-6zM27 16h4v1h-4zM29 17h4v1h-4zM31 18h4v1h-4zM33 19h3v2h-3zM34 21h3v2h-3zM35 23h3v2h-3zM36 25h3v2h-3zM37 27h3v2h-3zM38 29h2v15h-2zM37 37h1v8h-1zM40 37h1v4h-1zM41 38h1v2h-1zM36 39h1v8h-1zM35 41h1v8h-1zM34 43h1v7h-1zM38 44h1v1h-1zM33 45h1v4h-1zM32 46h1v2h-1z"></path></svg>