<svg width="80" height="112" xmlns="http://www.w3.org/2000/svg" viewBox="0 0 80 112" shape-rendering="crispEdges"><path fill="#06080C" d="M19 0h1v9h-1zM56 0h1v9h-1zM18 1h1v6h-1zM57 1h1v6h-1zM20 6h1v7h-1zM48 7h1v1h-1zM50 7h1v1h-1zM52 7h1v1h-1zM55 7h1v24h-1zM21 8h1v1h-1zM49 8h1v1h-1zM19 13h1v1h-1zM18 14h1v2h-1zM19 16h1v1h-1zM20 17h1v7h-1zM19 21h1v3h-1zM48 21h1v9h-1zM17 22h2v2h-2zM15 23h2v2h-2zM21 23h1v1h-1zM46 23h2v1h-2zM45 24h1v1h-1zM14 25h2v12h-2zM18 25h1v1h-1zM20 25h1v1h-1zM22 25h1v1h-1zM24 25h1v1h-1zM26 25h1v1h-1zM42 25h3v1h-3zM28 26h1v1h-1zM41 26h1v4h-1zM29 27h1v1h-1zM47 27h1v3h-1zM30 28h1v1h-1zM42 28h5v2h-5zM24 29h1v1h-1zM31 29h2v1h-2zM40 29h1v1h-1zM49 29h1v1h-1zM33 30h2v1h-2zM20 31h2v1h-2zM40 31h1v1h-1zM42 31h1v1h-1zM48 31h1v1h-1zM54 31h1v2h-1zM35 32h1v1h-1zM43 32h1v1h-1zM53 32h1v1h-1zM51 33h2v1h-2zM51 34h1v3h-1zM50 35h1v1h-1zM16 36h1v20h-1zM52 36h1v33h-1zM15 37h1v2h-1zM53 37h1v34h-1zM17 38h1v17h-1zM37 44h1v2h-1zM24 45h13v1h-13zM38 45h1v1h-1zM40 45h1v1h-1zM42 45h3v1h-3zM24 48h1v7h-1zM15 53h1v3h-1zM34 53h1v1h-1zM36 53h1v1h-1zM38 53h1v1h-1zM40 53h1v1h-1zM42 53h1v1h-1zM44 53h1v1h-1zM9 54h6v2h-6zM45 54h1v1h-1zM7 55h2v2h-2zM25 55h1v1h-1zM19 56h1v2h-1zM23 56h1v2h-1zM6 57h2v10h-2zM12 57h1v1h-1zM14 57h1v1h-1zM16 57h3v1h-3zM20 57h1v1h-1zM22 57h1v1h-1zM24 57h1v1h-1zM26 57h1v1h-1zM27 58h1v1h-1zM48 65h1v1h-1zM8 66h2v3h-2zM7 67h1v2h-1zM10 67h1v3h-1zM12 67h1v3h-1zM14 67h1v3h-1zM16 67h1v3h-1zM18 67h1v3h-1zM20 67h1v3h-1zM22 67h1v10h-1zM24 67h1v4h-1zM11 68h1v2h-1zM13 68h1v2h-1zM15 68h1v2h-1zM17 68h1v2h-1zM19 68h1v2h-1zM21 68h1v3h-1zM23 68h1v7h-1zM25 68h1v2h-1zM9 69h1v1h-1zM54 69h1v10h-1zM50 70h1v1h-1zM55 71h1v10h-1zM51 72h1v1h-1zM21 75h1v6h-1zM20 77h1v6h-1zM56 79h1v10h-1zM52 80h1v1h-1zM19 81h1v8h-1zM57 81h1v10h-1zM53 82h1v1h-1zM18 83h1v8h-1zM17 89h1v8h-1zM58 89h1v22h-1zM54 90h1v1h-1zM16 91h1v7h-1zM59 91h1v18h-1zM55 92h1v1h-1zM15 95h1v3h-1zM13 97h2v2h-2zM19 98h1v2h-1zM39 98h1v10h-1zM12 99h2v8h-2zM17 99h2v1h-2zM20 99h1v1h-1zM22 99h1v1h-1zM24 99h1v1h-1zM26 99h1v1h-1zM28 99h1v1h-1zM38 99h1v9h-1zM44 99h1v1h-1zM46 99h1v1h-1zM48 99h1v1h-1zM50 99h1v1h-1zM52 99h1v1h-1zM29 100h1v1h-1zM53 100h1v1h-1zM37 105h1v4h-1zM14 106h2v3h-2zM40 106h1v3h-1zM13 107h1v2h-1zM16 107h1v3h-1zM36 107h1v4h-1zM17 108h2v3h-2zM31 108h1v4h-1zM41 108h2v3h-2zM15 109h1v1h-1zM19 109h12v3h-12zM32 109h1v3h-1zM35 109h1v2h-1zM43 109h12v3h-12zM57 109h1v2h-1zM33 110h2v2h-2zM55 110h2v2h-2z"></path><path fill="#FFC48E" d="M20 0h1v6h-1zM22 0h12v1h-12zM36 0h18v1h-18zM23 1h1v1h-1zM25 1h1v1h-1zM27 1h1v1h-1zM29 1h1v1h-1zM31 1h1v1h-1zM37 1h1v1h-1zM39 1h1v1h-1zM41 1h1v1h-1zM43 1h1v1h-1zM45 1h1v1h-1zM47 1h1v1h-1zM49 1h1v1h-1zM51 1h1v1h-1zM53 1h1v2h-1zM52 2h1v1h-1zM21 6h1v2h-1zM22 8h1v1h-1zM21 9h1v4h-1zM20 13h1v1h-1zM19 14h1v2h-1zM20 16h1v1h-1zM22 16h7v1h-7zM31 16h2v1h-2zM21 17h1v6h-1zM23 17h1v1h-1zM25 17h1v1h-1zM27 17h1v1h-1zM33 17h1v2h-1zM32 18h1v1h-1zM27 19h1v1h-1zM30 19h1v2h-1zM28 20h1v1h-1zM31 20h1v1h-1zM17 24h1v1h-1zM16 25h1v11h-1zM17 36h1v2h-1zM18 38h1v17h-1zM26 46h4v1h-4zM27 47h1v1h-1zM29 47h1v6h-1zM28 48h1v1h-1zM28 50h1v1h-1zM28 52h1v1h-1zM17 55h1v1h-1zM9 56h1v1h-1zM8 57h1v9h-1zM12 61h1v1h-1zM14 61h1v1h-1zM16 61h2v1h-2zM16 62h1v1h-1zM10 66h1v1h-1zM11 67h1v1h-1zM26 68h1v2h-1zM25 70h1v1h-1zM24 71h1v4h-1zM23 75h1v2h-1zM22 77h1v4h-1zM21 81h1v2h-1zM20 83h1v6h-1zM19 89h1v2h-1zM18 91h1v6h-1zM17 97h1v1h-1zM15 98h1v1h-1zM14 99h1v7h-1zM16 106h1v1h-1zM17 107h1v1h-1zM19 108h1v1h-1zM33 109h1v1h-1z"></path><path fill="#141A22" d="M21 0h1v6h-1zM54 0h2v1h-2zM55 1h1v4h-1zM54 2h1v1h-1zM54 4h1v1h-1zM22 5h1v1h-1zM53 5h1v1h-1zM28 24h1v1h-1zM17 25h1v3h-1zM29 25h2v1h-2zM30 26h1v1h-1zM31 27h2v1h-2zM18 28h6v1h-6zM26 28h1v1h-1zM33 28h2v1h-2zM19 29h1v1h-1zM21 29h1v1h-1zM23 29h1v7h-1zM27 29h1v6h-1zM35 29h2v1h-2zM22 30h1v1h-1zM26 30h1v1h-1zM36 30h3v1h-3zM43 30h4v1h-4zM37 31h1v1h-1zM45 31h1v1h-1zM18 32h2v1h-2zM22 32h1v1h-1zM26 32h1v1h-1zM19 33h1v23h-1zM37 33h1v11h-1zM45 33h1v11h-1zM18 34h1v1h-1zM22 34h1v1h-1zM26 34h1v1h-1zM36 34h1v1h-1zM44 34h1v1h-1zM18 36h1v1h-1zM24 36h1v1h-1zM36 36h1v1h-1zM44 36h1v1h-1zM50 36h1v1h-1zM51 37h1v33h-1zM36 38h1v1h-1zM44 38h1v1h-1zM50 38h1v1h-1zM23 39h1v3h-1zM22 40h1v1h-1zM36 40h1v1h-1zM44 40h1v1h-1zM50 40h1v1h-1zM24 41h1v2h-1zM35 41h1v1h-1zM25 42h10v1h-10zM36 42h1v1h-1zM44 42h1v1h-1zM50 42h1v1h-1zM25 43h1v1h-1zM27 43h1v1h-1zM29 43h1v1h-1zM31 43h1v1h-1zM33 43h1v1h-1zM38 43h1v1h-1zM43 43h1v1h-1zM50 44h1v1h-1zM50 46h1v1h-1zM23 47h1v9h-1zM22 48h1v1h-1zM50 48h1v1h-1zM22 50h1v1h-1zM50 50h1v1h-1zM22 52h1v1h-1zM30 52h3v1h-3zM45 52h2v1h-2zM50 52h1v1h-1zM31 53h1v1h-1zM47 53h1v11h-1zM22 54h1v1h-1zM46 54h1v1h-1zM50 54h1v1h-1zM24 55h1v1h-1zM29 55h1v1h-1zM10 56h1v1h-1zM27 56h2v1h-2zM30 56h1v1h-1zM46 56h1v1h-1zM50 56h1v1h-1zM9 57h1v1h-1zM29 57h1v1h-1zM46 58h1v1h-1zM50 58h1v1h-1zM9 59h1v7h-1zM29 59h1v6h-1zM28 60h1v1h-1zM46 60h1v1h-1zM50 60h1v1h-1zM28 62h1v1h-1zM46 62h1v1h-1zM50 62h1v1h-1zM28 64h1v1h-1zM50 64h1v1h-1zM10 65h1v1h-1zM27 65h1v1h-1zM26 66h1v1h-1zM28 66h1v1h-1zM46 66h2v1h-2zM50 66h1v1h-1zM27 67h1v1h-1zM47 67h1v4h-1zM46 68h1v1h-1zM50 68h1v1h-1zM52 69h1v2h-1zM26 70h1v1h-1zM46 70h1v1h-1zM25 71h1v1h-1zM45 71h1v1h-1zM53 71h1v9h-1zM46 72h1v1h-1zM52 72h1v1h-1zM25 73h1v2h-1zM44 73h2v1h-2zM44 74h1v1h-1zM52 74h1v1h-1zM45 75h1v2h-1zM24 76h1v1h-1zM44 76h1v1h-1zM52 76h1v1h-1zM23 77h1v1h-1zM43 77h1v1h-1zM44 78h1v1h-1zM52 78h1v1h-1zM23 79h1v2h-1zM42 79h2v1h-2zM54 79h1v2h-1zM42 80h1v1h-1zM43 81h1v2h-1zM55 81h1v9h-1zM22 82h1v1h-1zM42 82h1v1h-1zM54 82h1v1h-1zM21 83h1v1h-1zM41 83h1v1h-1zM42 84h1v1h-1zM54 84h1v1h-1zM21 85h1v4h-1zM40 85h2v1h-2zM40 86h1v1h-1zM54 86h1v1h-1zM41 87h1v11h-1zM40 88h1v1h-1zM54 88h1v1h-1zM56 89h1v2h-1zM20 90h1v1h-1zM40 90h1v1h-1zM19 91h1v1h-1zM39 91h1v1h-1zM57 91h1v16h-1zM40 92h1v1h-1zM56 92h1v1h-1zM19 93h1v5h-1zM38 93h1v2h-1zM40 94h1v1h-1zM56 94h1v1h-1zM40 96h1v1h-1zM56 96h1v1h-1zM20 97h1v1h-1zM37 97h1v1h-1zM42 97h1v2h-1zM55 97h1v1h-1zM16 98h1v1h-1zM29 98h2v1h-2zM53 98h2v1h-2zM56 98h1v1h-1zM15 99h1v1h-1zM31 99h1v9h-1zM36 99h1v2h-1zM30 100h1v1h-1zM37 100h1v3h-1zM56 100h1v1h-1zM15 101h1v5h-1zM41 101h1v5h-1zM30 102h1v1h-1zM36 102h1v1h-1zM40 102h1v1h-1zM56 102h1v1h-1zM35 103h1v1h-1zM30 104h1v1h-1zM36 104h1v1h-1zM40 104h1v1h-1zM56 104h1v1h-1zM16 105h1v1h-1zM29 105h1v1h-1zM34 105h2v1h-2zM42 105h1v2h-1zM53 105h1v1h-1zM17 106h12v1h-12zM30 106h1v1h-1zM34 106h1v1h-1zM43 106h10v1h-10zM56 106h1v1h-1zM19 107h1v1h-1zM21 107h1v1h-1zM23 107h1v1h-1zM25 107h1v1h-1zM27 107h1v1h-1zM43 107h1v1h-1zM45 107h1v1h-1zM47 107h1v1h-1zM49 107h1v1h-1zM51 107h1v1h-1z"></path><path fill="#F08B2E" d="M34 0h2v1h-2zM22 1h1v2h-1zM24 1h1v3h-1zM26 1h1v3h-1zM28 1h1v2h-1zM30 1h1v1h-1zM32 1h2v1h-2zM38 1h1v1h-1zM40 1h1v1h-1zM42 1h1v2h-1zM44 1h1v3h-1zM46 1h1v3h-1zM48 1h1v3h-1zM50 1h1v3h-1zM52 1h1v1h-1zM23 2h1v2h-1zM25 2h1v2h-1zM27 2h1v1h-1zM32 2h1v1h-1zM41 2h1v1h-1zM43 2h1v2h-1zM45 2h1v2h-1zM47 2h1v2h-1zM49 2h1v2h-1zM51 2h1v2h-1zM52 3h2v1h-2zM52 4h1v1h-1zM29 16h2v1h-2zM22 17h1v3h-1zM24 17h1v3h-1zM26 17h1v4h-1zM31 17h2v1h-2zM23 18h1v2h-1zM25 18h1v2h-1zM27 18h1v1h-1zM32 19h2v1h-2zM27 20h1v1h-1zM29 20h1v1h-1zM32 20h1v1h-1zM31 21h1v1h-1zM26 47h1v7h-1zM28 47h1v1h-1zM27 48h1v6h-1zM28 49h1v1h-1zM28 51h1v1h-1zM28 53h2v1h-2zM28 54h1v1h-1zM12 62h4v1h-4zM17 62h1v1h-1zM15 63h2v1h-2z"></path><path fill="#613e1e" d="M34 1h1v1h-1zM36 2h1v1h-1zM29 3h2v1h-2zM37 3h4v1h-4zM22 4h2v1h-2zM27 4h1v1h-1zM41 4h3v1h-3zM45 4h1v2h-1zM47 4h1v2h-1zM49 4h1v2h-1zM23 5h2v1h-2zM43 5h2v1h-2zM46 5h1v1h-1zM48 5h1v1h-1zM50 5h1v1h-1zM30 17h1v1h-1zM31 18h1v1h-1zM23 20h1v2h-1zM22 21h1v1h-1zM24 21h3v1h-3zM25 49h1v6h-1zM26 55h1v1h-1z"></path><path fill="#a05f25" d="M35 1h2v1h-2zM29 2h3v1h-3zM33 2h1v1h-1zM37 2h4v1h-4zM22 3h1v1h-1zM27 3h2v1h-2zM31 3h2v1h-2zM41 3h2v1h-2zM24 4h3v1h-3zM28 4h1v1h-1zM44 4h1v1h-1zM46 4h1v1h-1zM48 4h1v1h-1zM50 4h2v1h-2zM53 4h1v1h-1zM25 5h2v1h-2zM51 5h2v1h-2zM28 17h2v1h-2zM28 18h1v1h-1zM22 20h1v1h-1zM24 20h2v1h-2zM33 20h1v1h-1zM27 21h4v1h-4zM32 21h1v1h-1zM26 54h2v1h-2zM29 54h1v1h-1zM27 55h2v1h-2zM13 63h2v1h-2z"></path><path fill="#0E1218" d="M54 1h1v1h-1zM54 3h1v1h-1zM54 5h2v1h-2zM22 6h1v1h-1zM47 6h6v1h-6zM54 6h1v1h-1zM18 24h10v1h-10zM24 28h2v1h-2zM32 28h1v1h-1zM17 29h2v1h-2zM20 29h1v1h-1zM22 29h1v1h-1zM26 29h1v1h-1zM33 29h1v1h-1zM18 30h2v2h-2zM35 30h1v1h-1zM39 30h4v1h-4zM47 30h3v1h-3zM17 31h1v5h-1zM22 31h1v1h-1zM26 31h1v1h-1zM36 31h1v3h-1zM43 31h2v1h-2zM37 32h1v1h-1zM44 32h2v1h-2zM18 33h1v1h-1zM22 33h1v1h-1zM26 33h1v1h-1zM44 33h1v1h-1zM18 35h1v1h-1zM22 35h1v2h-1zM26 35h2v1h-2zM36 35h1v1h-1zM44 35h1v1h-1zM25 36h2v1h-2zM18 37h1v1h-1zM23 37h1v2h-1zM36 37h1v1h-1zM44 37h1v1h-1zM50 37h1v1h-1zM22 38h1v2h-1zM36 39h1v1h-1zM44 39h1v1h-1zM50 39h1v1h-1zM22 41h1v2h-1zM36 41h1v1h-1zM44 41h1v1h-1zM50 41h1v1h-1zM35 42h1v2h-1zM23 43h2v1h-2zM26 43h1v1h-1zM28 43h1v1h-1zM30 43h1v1h-1zM32 43h1v1h-1zM34 43h1v1h-1zM36 43h1v1h-1zM44 43h1v2h-1zM50 43h1v1h-1zM22 44h1v1h-1zM24 44h1v1h-1zM38 44h5v1h-5zM45 44h1v1h-1zM23 45h1v2h-1zM50 45h1v1h-1zM22 46h1v2h-1zM50 47h1v1h-1zM22 49h1v1h-1zM50 49h1v1h-1zM22 51h1v1h-1zM50 51h1v1h-1zM33 52h12v1h-12zM22 53h1v1h-1zM30 53h1v3h-1zM45 53h2v1h-2zM50 53h1v1h-1zM31 54h1v2h-1zM18 55h1v1h-1zM22 55h1v1h-1zM46 55h1v1h-1zM50 55h1v1h-1zM11 56h6v1h-6zM20 56h2v1h-2zM24 56h3v1h-3zM29 56h1v1h-1zM27 57h2v1h-2zM30 57h1v1h-1zM46 57h1v1h-1zM50 57h1v1h-1zM9 58h1v1h-1zM28 58h2v1h-2zM28 59h1v1h-1zM46 59h1v1h-1zM50 59h1v1h-1zM28 61h1v1h-1zM46 61h1v1h-1zM50 61h1v1h-1zM28 63h1v1h-1zM46 63h1v2h-1zM50 63h1v1h-1zM48 64h2v1h-2zM28 65h2v1h-2zM47 65h1v1h-1zM50 65h1v1h-1zM11 66h15v1h-15zM27 66h1v1h-1zM26 67h1v1h-1zM28 67h1v1h-1zM46 67h1v1h-1zM50 67h1v1h-1zM27 68h1v2h-1zM46 69h1v1h-1zM51 70h1v1h-1zM26 71h1v1h-1zM46 71h2v1h-2zM52 71h1v1h-1zM25 72h1v1h-1zM45 72h1v1h-1zM46 73h1v1h-1zM52 73h1v1h-1zM45 74h1v1h-1zM24 75h2v1h-2zM44 75h1v1h-1zM52 75h1v1h-1zM24 77h1v1h-1zM44 77h2v1h-2zM52 77h1v1h-1zM23 78h1v1h-1zM43 78h1v1h-1zM44 79h1v1h-1zM43 80h1v1h-1zM53 80h1v1h-1zM22 81h2v1h-2zM42 81h1v1h-1zM54 81h1v1h-1zM22 83h1v1h-1zM42 83h2v1h-2zM54 83h1v1h-1zM21 84h1v1h-1zM41 84h1v1h-1zM42 85h1v1h-1zM54 85h1v1h-1zM41 86h1v1h-1zM40 87h1v1h-1zM54 87h1v1h-1zM20 89h2v1h-2zM40 89h1v1h-1zM55 90h1v1h-1zM20 91h1v1h-1zM40 91h1v1h-1zM56 91h1v1h-1zM19 92h1v1h-1zM39 92h1v6h-1zM40 93h1v1h-1zM56 93h1v1h-1zM38 95h1v2h-1zM40 95h1v1h-1zM56 95h1v1h-1zM18 97h1v1h-1zM40 97h1v2h-1zM56 97h1v1h-1zM20 98h9v1h-9zM37 98h1v2h-1zM43 98h10v1h-10zM55 98h1v10h-1zM29 99h2v1h-2zM41 99h1v2h-1zM53 99h2v1h-2zM56 99h1v1h-1zM15 100h1v1h-1zM40 100h1v2h-1zM54 100h1v8h-1zM30 101h1v1h-1zM36 101h1v1h-1zM56 101h1v1h-1zM30 103h1v1h-1zM36 103h2v1h-2zM40 103h1v1h-1zM56 103h1v1h-1zM35 104h1v1h-1zM30 105h1v1h-1zM36 105h1v1h-1zM56 105h1v1h-1zM29 106h1v2h-1zM35 106h1v2h-1zM53 106h1v2h-1zM20 107h1v1h-1zM22 107h1v1h-1zM24 107h1v1h-1zM26 107h1v1h-1zM28 107h1v1h-1zM30 107h1v1h-1zM34 107h1v2h-1zM44 107h1v1h-1zM46 107h1v1h-1zM48 107h1v1h-1zM50 107h1v1h-1zM52 107h1v1h-1zM56 107h2v1h-2zM32 108h2v1h-2zM56 108h1v1h-1z"></path><path fill="#4E6488" d="M34 2h2v1h-2zM33 3h1v1h-1zM35 3h2v1h-2zM29 4h4v1h-4zM36 4h5v1h-5zM27 5h3v1h-3zM31 5h1v1h-1zM37 5h1v1h-1zM39 5h1v1h-1zM41 5h2v1h-2zM24 6h3v1h-3zM28 6h1v1h-1zM42 6h4v1h-4zM23 7h1v1h-1zM25 7h1v1h-1zM43 7h1v1h-1zM45 7h2v1h-2zM46 8h2v1h-2zM47 9h1v5h-1zM46 10h1v1h-1zM46 12h1v1h-1zM21 13h1v1h-1zM48 13h1v2h-1zM30 46h16v1h-16zM31 47h1v1h-1zM33 47h1v1h-1zM35 47h1v1h-1zM37 47h1v1h-1zM39 47h1v1h-1zM41 47h1v1h-1zM43 47h1v1h-1zM45 47h1v3h-1zM44 48h1v1h-1z"></path><path fill="#36486A" d="M34 3h1v4h-1zM33 4h1v4h-1zM35 4h1v2h-1zM30 5h1v4h-1zM32 5h1v4h-1zM36 5h1v2h-1zM38 5h1v4h-1zM40 5h1v4h-1zM27 6h1v4h-1zM29 6h1v2h-1zM31 6h1v2h-1zM37 6h1v2h-1zM39 6h1v2h-1zM41 6h1v4h-1zM24 7h1v4h-1zM26 7h1v4h-1zM28 7h1v2h-1zM35 7h1v1h-1zM42 7h1v2h-1zM44 7h1v6h-1zM23 8h1v4h-1zM25 8h1v2h-1zM34 8h1v1h-1zM36 8h1v1h-1zM43 8h1v2h-1zM45 8h1v6h-1zM22 9h1v4h-1zM29 9h1v1h-1zM31 9h1v1h-1zM33 9h1v1h-1zM35 9h1v1h-1zM37 9h1v1h-1zM39 9h1v1h-1zM46 9h1v1h-1zM28 10h1v1h-1zM30 10h1v1h-1zM32 10h1v1h-1zM34 10h1v1h-1zM36 10h1v1h-1zM38 10h1v1h-1zM40 10h1v1h-1zM42 10h1v1h-1zM25 11h1v1h-1zM27 11h1v1h-1zM29 11h1v1h-1zM31 11h1v1h-1zM33 11h1v1h-1zM35 11h1v1h-1zM37 11h1v1h-1zM39 11h1v1h-1zM41 11h1v1h-1zM43 11h1v1h-1zM46 11h1v1h-1zM24 12h1v1h-1zM26 12h1v1h-1zM28 12h1v1h-1zM30 12h1v1h-1zM32 12h1v1h-1zM34 12h1v1h-1zM36 12h1v1h-1zM38 12h1v1h-1zM40 12h1v1h-1zM42 12h1v1h-1zM23 13h1v1h-1zM25 13h1v1h-1zM27 13h1v1h-1zM29 13h1v1h-1zM31 13h1v1h-1zM33 13h1v1h-1zM35 13h1v1h-1zM37 13h1v1h-1zM39 13h1v1h-1zM41 13h1v1h-1zM43 13h1v1h-1zM46 13h1v3h-1zM20 14h1v1h-1zM34 14h1v1h-1zM36 14h1v1h-1zM38 14h1v1h-1zM40 14h1v1h-1zM42 14h1v1h-1zM44 14h1v1h-1zM47 14h1v2h-1zM49 14h1v1h-1zM35 15h1v1h-1zM37 15h1v1h-1zM39 15h1v1h-1zM41 15h1v1h-1zM43 15h1v1h-1zM45 15h1v1h-1zM25 46h1v1h-1zM30 47h1v3h-1zM32 47h1v3h-1zM34 47h1v3h-1zM36 47h1v3h-1zM38 47h1v3h-1zM40 47h1v3h-1zM42 47h1v3h-1zM44 47h1v1h-1zM31 48h1v2h-1zM33 48h1v2h-1zM35 48h1v2h-1zM37 48h1v2h-1zM39 48h1v2h-1zM41 48h1v2h-1zM43 48h1v2h-1zM44 49h1v2h-1zM45 50h1v1h-1z"></path><path fill="#090C10" d="M23 6h1v1h-1zM46 6h1v1h-1zM53 6h1v2h-1zM55 6h1v1h-1zM22 7h1v1h-1zM47 7h1v1h-1zM49 7h1v1h-1zM51 7h1v1h-1zM54 7h1v1h-1zM19 25h1v1h-1zM21 25h1v1h-1zM23 25h1v1h-1zM25 25h1v1h-1zM27 25h2v1h-2zM29 26h1v1h-1zM30 27h1v1h-1zM17 28h1v1h-1zM31 28h1v1h-1zM25 29h1v1h-1zM34 29h1v1h-1zM17 30h1v1h-1zM20 30h2v1h-2zM35 31h1v1h-1zM38 31h2v1h-2zM41 31h1v1h-1zM46 31h2v1h-2zM49 31h1v1h-1zM38 32h1v1h-1zM46 32h1v1h-1zM23 36h1v1h-1zM27 36h1v1h-1zM22 37h1v1h-1zM24 37h3v1h-3zM24 38h1v1h-1zM23 42h1v1h-1zM22 43h1v1h-1zM23 44h1v1h-1zM25 44h12v1h-12zM43 44h1v1h-1zM22 45h1v1h-1zM39 45h1v1h-1zM41 45h1v1h-1zM45 45h1v1h-1zM24 46h1v1h-1zM32 53h2v1h-2zM35 53h1v1h-1zM37 53h1v1h-1zM39 53h1v1h-1zM41 53h1v1h-1zM43 53h1v1h-1zM32 54h1v1h-1zM17 56h2v1h-2zM22 56h1v1h-1zM31 56h1v1h-1zM10 57h2v1h-2zM13 57h1v1h-1zM15 57h1v1h-1zM21 57h1v1h-1zM25 57h1v1h-1zM10 58h1v1h-1zM30 58h1v1h-1zM47 64h1v1h-1zM46 65h1v1h-1zM49 65h1v1h-1zM29 66h1v1h-1zM13 67h1v1h-1zM15 67h1v1h-1zM17 67h1v1h-1zM19 67h1v1h-1zM21 67h1v1h-1zM23 67h1v1h-1zM25 67h1v1h-1zM28 68h1v1h-1zM50 69h1v1h-1zM27 70h1v1h-1zM51 71h1v1h-1zM26 72h1v1h-1zM47 72h1v1h-1zM46 74h1v1h-1zM25 76h1v1h-1zM24 78h1v1h-1zM45 78h1v1h-1zM52 79h1v1h-1zM44 80h1v1h-1zM53 81h1v1h-1zM23 82h1v1h-1zM22 84h1v1h-1zM43 84h1v1h-1zM42 86h1v1h-1zM54 89h1v1h-1zM21 90h1v1h-1zM55 91h1v1h-1zM20 92h1v1h-1zM38 97h1v2h-1zM17 98h2v1h-2zM41 98h1v1h-1zM16 99h1v2h-1zM21 99h1v1h-1zM23 99h1v1h-1zM25 99h1v1h-1zM27 99h1v1h-1zM40 99h1v1h-1zM42 99h2v1h-2zM45 99h1v1h-1zM47 99h1v1h-1zM49 99h1v1h-1zM51 99h1v1h-1zM42 100h1v1h-1zM37 104h1v1h-1zM40 105h1v1h-1zM36 106h1v1h-1zM41 106h1v2h-1zM18 107h1v1h-1zM42 107h1v1h-1zM20 108h11v1h-11zM35 108h1v1h-1zM43 108h13v1h-13zM57 108h1v1h-1zM34 109h1v1h-1zM55 109h2v1h-2z"></path><path fill="#24324A" d="M35 6h1v1h-1zM34 7h1v1h-1zM36 7h1v1h-1zM29 8h1v1h-1zM31 8h1v1h-1zM33 8h1v1h-1zM35 8h1v1h-1zM37 8h1v1h-1zM39 8h1v1h-1zM28 9h1v1h-1zM30 9h1v1h-1zM32 9h1v1h-1zM34 9h1v1h-1zM36 9h1v1h-1zM38 9h1v1h-1zM40 9h1v1h-1zM42 9h1v1h-1zM25 10h1v1h-1zM27 10h1v1h-1zM29 10h1v1h-1zM31 10h1v1h-1zM33 10h1v1h-1zM35 10h1v1h-1zM37 10h1v1h-1zM39 10h1v1h-1zM41 10h1v1h-1zM43 10h1v1h-1zM24 11h1v1h-1zM26 11h1v1h-1zM28 11h1v1h-1zM30 11h1v1h-1zM32 11h1v1h-1zM34 11h1v1h-1zM36 11h1v1h-1zM38 11h1v1h-1zM40 11h1v1h-1zM42 11h1v1h-1zM23 12h1v1h-1zM25 12h1v1h-1zM27 12h1v1h-1zM29 12h1v1h-1zM31 12h1v1h-1zM33 12h1v1h-1zM35 12h1v1h-1zM37 12h1v1h-1zM39 12h1v1h-1zM41 12h1v1h-1zM43 12h1v1h-1zM22 13h1v2h-1zM24 13h1v2h-1zM26 13h1v2h-1zM28 13h1v2h-1zM30 13h1v2h-1zM32 13h1v2h-1zM34 13h1v1h-1zM36 13h1v1h-1zM38 13h1v1h-1zM40 13h1v1h-1zM42 13h1v1h-1zM44 13h1v1h-1zM21 14h1v1h-1zM33 14h1v2h-1zM35 14h1v1h-1zM37 14h1v1h-1zM39 14h1v1h-1zM41 14h1v1h-1zM43 14h1v1h-1zM45 14h1v1h-1zM34 15h1v2h-1zM36 15h1v2h-1zM38 15h1v2h-1zM40 15h1v2h-1zM42 15h1v2h-1zM44 15h1v2h-1zM48 15h2v1h-2zM45 16h4v1h-4zM47 17h1v1h-1zM24 47h2v1h-2zM30 50h1v1h-1zM32 50h1v1h-1zM34 50h1v1h-1zM36 50h1v1h-1zM38 50h1v1h-1zM40 50h1v1h-1zM42 50h2v1h-2zM45 51h1v1h-1z"></path><path fill="#141C2C" d="M48 8h1v5h-1zM49 13h1v1h-1zM23 14h1v2h-1zM25 14h1v2h-1zM27 14h1v2h-1zM29 14h1v2h-1zM31 14h1v2h-1zM20 15h3v1h-3zM24 15h1v1h-1zM26 15h1v1h-1zM28 15h1v1h-1zM30 15h1v1h-1zM32 15h1v1h-1zM21 16h1v1h-1zM33 16h1v1h-1zM35 16h1v2h-1zM37 16h1v2h-1zM39 16h1v2h-1zM41 16h1v2h-1zM43 16h1v2h-1zM49 16h1v1h-1zM34 17h1v1h-1zM36 17h1v1h-1zM38 17h1v1h-1zM40 17h1v1h-1zM42 17h1v1h-1zM44 17h3v1h-3zM48 17h1v1h-1zM25 48h1v1h-1zM31 50h1v2h-1zM33 50h1v2h-1zM35 50h1v2h-1zM37 50h1v2h-1zM39 50h1v2h-1zM41 50h1v2h-1zM30 51h1v1h-1zM32 51h1v1h-1zM34 51h1v1h-1zM36 51h1v1h-1zM38 51h1v1h-1zM40 51h1v1h-1zM42 51h3v1h-3z"></path><path fill="#7A9AB6" d="M50 8h4v1h-4zM51 9h1v1h-1zM53 9h1v20h-1zM52 10h1v1h-1zM52 12h1v1h-1zM52 14h1v1h-1zM52 16h1v1h-1zM34 18h14v1h-14zM52 18h1v1h-1zM35 19h1v1h-1zM37 19h1v1h-1zM39 19h1v1h-1zM41 19h1v1h-1zM43 19h1v1h-1zM45 19h1v1h-1zM46 20h1v1h-1zM52 20h1v1h-1zM33 21h1v1h-1zM29 22h4v1h-4zM52 22h1v1h-1zM31 23h1v1h-1zM52 24h1v1h-1zM39 25h1v1h-1zM27 26h1v1h-1zM52 26h1v1h-1zM28 27h1v2h-1zM39 27h1v1h-1zM29 28h1v2h-1zM52 28h1v1h-1zM30 29h1v2h-1zM24 30h2v1h-2zM31 30h2v1h-2zM25 31h1v3h-1zM31 31h1v1h-1zM33 31h2v1h-2zM20 32h2v1h-2zM24 32h1v1h-1zM34 32h1v1h-1zM39 32h4v1h-4zM21 33h1v21h-1zM35 33h1v6h-1zM38 33h2v1h-2zM41 33h1v1h-1zM43 33h1v8h-1zM20 34h1v1h-1zM34 34h1v1h-1zM38 34h1v1h-1zM42 34h1v1h-1zM20 36h1v1h-1zM34 36h1v1h-1zM42 36h1v1h-1zM27 37h1v1h-1zM20 38h1v1h-1zM25 38h2v1h-2zM34 38h1v1h-1zM42 38h1v1h-1zM25 39h1v1h-1zM20 40h1v1h-1zM42 40h1v1h-1zM20 42h1v1h-1zM20 44h1v1h-1zM20 46h1v1h-1zM20 48h1v1h-1zM20 50h1v1h-1zM20 52h1v1h-1zM11 58h2v1h-2zM17 58h10v1h-10zM10 59h2v1h-2zM19 59h1v1h-1zM21 59h1v1h-1zM23 59h1v1h-1zM25 59h1v1h-1zM27 59h1v4h-1zM10 60h1v1h-1zM26 60h1v1h-1zM11 61h1v3h-1zM10 62h1v1h-1zM26 62h1v1h-1zM12 63h1v1h-1zM17 63h1v1h-1z"></path><path fill="#243240" d="M54 8h1v23h-1zM49 9h1v4h-1zM49 17h1v12h-1zM48 18h1v3h-1zM47 21h1v2h-1zM45 22h1v2h-1zM22 23h1v1h-1zM24 23h1v1h-1zM26 23h1v1h-1zM28 23h1v1h-1zM29 24h2v1h-2zM41 24h1v2h-1zM43 24h2v1h-2zM31 26h3v1h-3zM18 27h1v1h-1zM20 27h1v1h-1zM22 27h1v1h-1zM24 27h1v1h-1zM26 27h1v1h-1zM33 27h2v1h-2zM40 27h1v2h-1zM27 28h1v1h-1zM35 28h2v1h-2zM37 29h2v1h-2zM50 31h1v1h-1zM53 31h1v1h-1zM51 32h2v1h-2zM24 35h1v1h-1zM29 40h1v2h-1zM31 40h1v2h-1zM25 41h4v1h-4zM30 41h1v1h-1zM32 41h1v1h-1zM38 41h1v2h-1zM39 42h1v2h-1zM40 43h1v1h-1zM20 55h1v1h-1zM14 59h1v1h-1zM16 59h1v1h-1zM17 60h1v1h-1zM10 64h2v1h-2zM19 64h1v2h-1zM21 64h1v2h-1zM23 64h1v2h-1zM11 65h2v1h-2zM14 65h1v1h-1zM16 65h3v1h-3zM20 65h1v1h-1zM22 65h1v1h-1zM24 65h1v1h-1z"></path><path fill="#5A7896" d="M50 9h1v21h-1zM52 9h1v1h-1zM51 10h1v20h-1zM52 11h1v1h-1zM52 13h1v1h-1zM52 15h1v1h-1zM52 17h1v1h-1zM34 19h1v4h-1zM36 19h1v4h-1zM38 19h1v4h-1zM40 19h1v4h-1zM42 19h1v4h-1zM44 19h1v3h-1zM46 19h2v1h-2zM52 19h1v1h-1zM35 20h1v2h-1zM37 20h1v2h-1zM39 20h1v2h-1zM41 20h1v2h-1zM43 20h1v2h-1zM45 20h1v2h-1zM46 21h1v1h-1zM52 21h1v1h-1zM22 22h7v1h-7zM33 22h1v4h-1zM29 23h1v1h-1zM32 23h1v2h-1zM35 23h1v1h-1zM37 23h1v1h-1zM39 23h1v2h-1zM52 23h1v1h-1zM31 24h1v1h-1zM34 24h1v1h-1zM36 24h1v1h-1zM38 24h1v5h-1zM40 24h1v2h-1zM35 25h1v1h-1zM37 25h1v3h-1zM52 25h1v1h-1zM18 26h9v1h-9zM36 26h1v1h-1zM39 26h1v1h-1zM27 27h1v1h-1zM52 27h1v1h-1zM39 28h1v1h-1zM28 29h1v2h-1zM52 29h2v1h-2zM29 30h1v2h-1zM52 30h1v1h-1zM24 31h1v1h-1zM30 31h1v2h-1zM32 31h1v9h-1zM28 32h1v1h-1zM31 32h1v2h-1zM33 32h1v8h-1zM20 33h1v1h-1zM24 33h1v2h-1zM29 33h1v1h-1zM34 33h1v1h-1zM40 33h1v9h-1zM42 33h1v1h-1zM25 34h1v1h-1zM28 34h1v1h-1zM30 34h1v1h-1zM39 34h1v2h-1zM41 34h1v8h-1zM20 35h1v1h-1zM29 35h1v1h-1zM31 35h1v1h-1zM34 35h1v1h-1zM38 35h1v2h-1zM42 35h1v1h-1zM28 36h1v1h-1zM30 36h1v1h-1zM20 37h1v1h-1zM29 37h1v1h-1zM31 37h1v1h-1zM34 37h1v1h-1zM39 37h1v1h-1zM42 37h1v1h-1zM27 38h2v1h-2zM30 38h1v1h-1zM38 38h1v1h-1zM20 39h1v1h-1zM24 39h1v1h-1zM26 39h2v1h-2zM29 39h1v1h-1zM31 39h1v1h-1zM34 39h2v1h-2zM39 39h1v1h-1zM42 39h1v1h-1zM34 40h1v1h-1zM38 40h1v1h-1zM20 41h1v1h-1zM39 41h1v1h-1zM42 41h2v1h-2zM42 42h1v1h-1zM20 43h1v1h-1zM20 45h1v1h-1zM20 47h1v1h-1zM20 49h1v1h-1zM20 51h1v1h-1zM20 53h1v2h-1zM21 54h1v1h-1zM13 58h4v1h-4zM17 59h2v1h-2zM20 59h1v4h-1zM22 59h1v4h-1zM24 59h1v5h-1zM26 59h1v1h-1zM11 60h1v1h-1zM18 60h2v2h-2zM21 60h1v2h-1zM23 60h1v2h-1zM25 60h1v4h-1zM10 61h1v1h-1zM26 61h1v1h-1zM18 62h1v1h-1zM19 63h1v1h-1zM21 63h1v1h-1zM23 63h1v1h-1zM26 63h2v1h-2zM12 64h5v1h-5zM26 64h1v1h-1z"></path><path fill="#ffdfc1" d="M29 18h2v1h-2zM28 19h2v1h-2zM31 19h1v1h-1zM13 60h4v1h-4zM13 61h1v1h-1zM15 61h1v1h-1z"></path><path fill="#3E5468" d="M47 20h1v1h-1zM35 22h1v1h-1zM37 22h1v1h-1zM39 22h1v1h-1zM41 22h1v2h-1zM43 22h2v2h-2zM46 22h1v1h-1zM23 23h1v1h-1zM25 23h1v1h-1zM27 23h1v1h-1zM30 23h1v1h-1zM34 23h1v1h-1zM36 23h1v1h-1zM38 23h1v1h-1zM40 23h1v1h-1zM42 23h1v2h-1zM35 24h1v1h-1zM37 24h1v1h-1zM31 25h2v1h-2zM34 25h1v2h-1zM36 25h1v1h-1zM35 26h1v2h-1zM40 26h1v1h-1zM19 27h1v1h-1zM21 27h1v1h-1zM23 27h1v1h-1zM25 27h1v1h-1zM36 27h1v1h-1zM37 28h1v1h-1zM39 29h1v1h-1zM50 30h2v1h-2zM53 30h1v1h-1zM28 31h1v1h-1zM51 31h2v1h-2zM29 32h1v1h-1zM28 33h1v1h-1zM30 33h1v1h-1zM29 34h1v1h-1zM31 34h1v1h-1zM25 35h1v1h-1zM28 35h1v1h-1zM30 35h1v1h-1zM29 36h1v1h-1zM31 36h1v1h-1zM39 36h1v1h-1zM28 37h1v1h-1zM30 37h1v1h-1zM38 37h1v1h-1zM29 38h1v1h-1zM31 38h1v1h-1zM39 38h1v1h-1zM28 39h1v2h-1zM30 39h1v2h-1zM38 39h1v1h-1zM24 40h4v1h-4zM32 40h2v1h-2zM35 40h1v1h-1zM39 40h1v1h-1zM33 41h2v1h-2zM40 42h2v1h-2zM43 42h1v1h-1zM41 43h2v1h-2zM21 55h1v1h-1zM12 59h2v1h-2zM15 59h1v1h-1zM12 60h1v1h-1zM19 62h1v1h-1zM21 62h1v1h-1zM23 62h1v1h-1zM10 63h1v1h-1zM18 63h1v2h-1zM20 63h1v2h-1zM22 63h1v2h-1zM17 64h1v1h-1zM24 64h2v1h-2zM27 64h1v1h-1zM13 65h1v1h-1zM15 65h1v1h-1zM25 65h2v1h-2z"></path><path fill="#243048" d="M47 32h3v1h-3zM46 33h2v1h-2zM49 33h1v29h-1zM46 34h1v1h-1zM48 34h1v1h-1zM48 36h1v1h-1zM48 38h1v1h-1zM48 40h1v1h-1zM48 42h1v1h-1zM48 44h1v1h-1zM48 46h1v1h-1zM48 48h1v1h-1zM48 50h1v1h-1zM48 52h1v1h-1zM33 54h12v1h-12zM48 54h1v1h-1zM32 55h2v1h-2zM35 55h1v1h-1zM37 55h1v1h-1zM39 55h1v1h-1zM41 55h1v1h-1zM43 55h1v1h-1zM45 55h1v14h-1zM32 56h1v1h-1zM44 56h1v1h-1zM48 56h1v1h-1zM31 57h1v1h-1zM44 58h1v1h-1zM48 58h1v1h-1zM30 59h1v2h-1zM44 60h1v1h-1zM48 60h1v1h-1zM44 62h1v1h-1zM44 64h1v1h-1zM44 66h1v1h-1zM48 66h2v1h-2zM29 67h1v1h-1zM49 67h1v5h-1zM44 68h1v1h-1zM48 68h1v1h-1zM28 69h1v2h-1zM44 70h1v1h-1zM48 70h1v1h-1zM27 71h1v1h-1zM43 71h1v1h-1zM50 71h1v2h-1zM26 73h1v2h-1zM43 73h1v2h-1zM47 73h1v1h-1zM51 73h1v9h-1zM42 74h1v1h-1zM50 74h1v1h-1zM46 75h1v2h-1zM42 76h1v1h-1zM50 76h1v1h-1zM25 77h1v1h-1zM41 77h1v1h-1zM50 78h1v1h-1zM24 79h1v2h-1zM41 79h1v2h-1zM45 79h1v1h-1zM40 80h1v1h-1zM50 80h1v1h-1zM44 81h1v2h-1zM52 81h1v2h-1zM40 82h1v1h-1zM23 83h1v1h-1zM39 83h1v1h-1zM53 83h1v9h-1zM52 84h1v1h-1zM22 85h1v2h-1zM39 85h1v4h-1zM43 85h1v1h-1zM38 86h1v1h-1zM52 86h1v1h-1zM42 87h1v2h-1zM38 88h1v1h-1zM52 88h1v1h-1zM38 90h1v1h-1zM52 90h1v1h-1zM21 91h1v1h-1zM37 91h1v1h-1zM54 91h1v2h-1zM20 93h1v2h-1zM37 93h1v2h-1zM55 93h1v2h-1zM36 94h1v1h-1zM54 94h1v1h-1zM36 96h1v1h-1zM35 97h1v1h-1zM35 99h1v2h-1zM34 100h1v1h-1zM43 100h10v1h-10zM42 101h2v1h-2zM45 101h1v1h-1zM47 101h1v1h-1zM49 101h1v1h-1zM51 101h1v1h-1zM53 101h1v2h-1zM34 102h1v1h-1zM42 102h1v1h-1zM52 102h1v1h-1zM33 103h1v1h-1zM33 105h1v1h-1z"></path><path fill="#080C14" d="M50 32h1v3h-1zM46 51h1v1h-1zM47 52h1v1h-1zM48 63h1v1h-1zM42 95h1v2h-1zM20 96h2v1h-2zM23 96h1v2h-1zM25 96h1v2h-1zM27 96h1v2h-1zM29 96h1v2h-1zM43 96h1v2h-1zM45 96h1v2h-1zM47 96h1v2h-1zM49 96h1v2h-1zM51 96h1v2h-1zM21 97h2v1h-2zM24 97h1v1h-1zM26 97h1v1h-1zM28 97h1v1h-1zM30 97h1v1h-1zM44 97h1v1h-1zM46 97h1v1h-1zM48 97h1v1h-1zM50 97h1v1h-1zM52 97h1v1h-1zM31 98h1v1h-1zM42 104h2v1h-2zM45 104h1v2h-1zM47 104h1v2h-1zM49 104h1v2h-1zM43 105h2v1h-2zM46 105h1v1h-1zM48 105h1v1h-1zM50 105h1v1h-1zM32 107h1v1h-1z"></path><path fill="#161E30" d="M48 33h1v1h-1zM47 34h1v17h-1zM46 35h1v15h-1zM48 35h1v1h-1zM48 37h1v1h-1zM48 39h1v1h-1zM48 41h1v1h-1zM48 43h1v1h-1zM48 45h1v1h-1zM48 47h1v1h-1zM48 49h1v1h-1zM48 51h1v1h-1zM48 53h1v1h-1zM34 55h1v4h-1zM36 55h1v4h-1zM38 55h1v4h-1zM40 55h1v4h-1zM42 55h1v19h-1zM44 55h1v1h-1zM48 55h1v1h-1zM33 56h1v2h-1zM35 56h1v2h-1zM37 56h1v2h-1zM39 56h1v2h-1zM41 56h1v2h-1zM43 56h1v15h-1zM32 57h1v2h-1zM44 57h1v1h-1zM48 57h1v1h-1zM31 58h1v4h-1zM33 59h1v1h-1zM35 59h1v1h-1zM37 59h1v1h-1zM39 59h1v1h-1zM41 59h1v1h-1zM44 59h1v1h-1zM48 59h1v1h-1zM32 60h1v1h-1zM34 60h1v1h-1zM36 60h1v1h-1zM38 60h1v1h-1zM40 60h1v1h-1zM30 61h1v2h-1zM33 61h1v1h-1zM35 61h1v1h-1zM37 61h1v1h-1zM39 61h1v1h-1zM41 61h1v1h-1zM44 61h1v1h-1zM48 61h1v2h-1zM32 62h1v1h-1zM34 62h1v1h-1zM36 62h1v1h-1zM38 62h1v1h-1zM40 62h1v1h-1zM49 62h1v1h-1zM31 63h1v1h-1zM33 63h1v1h-1zM35 63h1v1h-1zM37 63h1v1h-1zM39 63h1v1h-1zM41 63h1v1h-1zM44 63h1v1h-1zM30 64h1v1h-1zM32 64h1v1h-1zM34 64h1v1h-1zM36 64h1v1h-1zM38 64h1v1h-1zM40 64h1v1h-1zM31 65h1v1h-1zM33 65h1v1h-1zM35 65h1v1h-1zM37 65h1v1h-1zM39 65h1v1h-1zM41 65h1v1h-1zM44 65h1v1h-1zM30 66h1v1h-1zM32 66h1v1h-1zM34 66h1v1h-1zM36 66h1v1h-1zM38 66h1v1h-1zM40 66h1v1h-1zM31 67h1v1h-1zM33 67h1v1h-1zM35 67h1v1h-1zM37 67h1v1h-1zM39 67h1v1h-1zM41 67h1v1h-1zM44 67h1v1h-1zM48 67h1v1h-1zM29 68h2v1h-2zM32 68h1v1h-1zM34 68h1v1h-1zM36 68h1v1h-1zM38 68h1v1h-1zM40 68h1v1h-1zM29 69h1v3h-1zM31 69h1v1h-1zM33 69h1v1h-1zM35 69h1v1h-1zM37 69h1v1h-1zM39 69h1v1h-1zM41 69h1v1h-1zM44 69h2v1h-2zM48 69h1v1h-1zM30 70h1v1h-1zM32 70h1v1h-1zM34 70h1v1h-1zM36 70h1v1h-1zM38 70h1v1h-1zM40 70h1v1h-1zM28 71h1v2h-1zM31 71h1v1h-1zM33 71h1v1h-1zM35 71h1v1h-1zM37 71h1v1h-1zM39 71h1v1h-1zM41 71h1v6h-1zM44 71h1v1h-1zM48 71h1v10h-1zM27 72h1v4h-1zM30 72h1v1h-1zM32 72h1v1h-1zM34 72h1v1h-1zM36 72h1v1h-1zM38 72h1v1h-1zM40 72h1v8h-1zM43 72h1v1h-1zM49 72h1v12h-1zM29 73h1v1h-1zM31 73h1v1h-1zM33 73h1v1h-1zM35 73h1v1h-1zM37 73h1v1h-1zM39 73h1v1h-1zM50 73h1v1h-1zM28 74h1v1h-1zM30 74h1v1h-1zM32 74h1v1h-1zM34 74h1v1h-1zM36 74h1v1h-1zM38 74h1v1h-1zM47 74h1v4h-1zM26 75h1v2h-1zM29 75h1v1h-1zM31 75h1v1h-1zM33 75h1v1h-1zM35 75h1v1h-1zM37 75h1v1h-1zM39 75h1v1h-1zM42 75h2v1h-2zM50 75h1v1h-1zM28 76h1v1h-1zM30 76h1v1h-1zM32 76h1v1h-1zM34 76h1v1h-1zM36 76h1v1h-1zM38 76h1v1h-1zM27 77h1v1h-1zM29 77h1v1h-1zM31 77h1v1h-1zM33 77h1v1h-1zM35 77h1v1h-1zM37 77h1v1h-1zM39 77h1v6h-1zM42 77h1v1h-1zM46 77h1v2h-1zM50 77h1v1h-1zM25 78h2v1h-2zM28 78h1v1h-1zM30 78h1v1h-1zM32 78h1v1h-1zM34 78h1v1h-1zM36 78h1v1h-1zM38 78h1v8h-1zM41 78h1v1h-1zM25 79h1v3h-1zM27 79h1v1h-1zM29 79h1v1h-1zM31 79h1v1h-1zM33 79h1v1h-1zM35 79h1v1h-1zM37 79h1v1h-1zM47 79h1v1h-1zM50 79h1v1h-1zM26 80h1v1h-1zM28 80h1v1h-1zM30 80h1v1h-1zM32 80h1v1h-1zM34 80h1v1h-1zM36 80h1v1h-1zM45 80h2v1h-2zM24 81h1v2h-1zM27 81h1v1h-1zM29 81h1v1h-1zM31 81h1v1h-1zM33 81h1v1h-1zM35 81h1v1h-1zM37 81h1v1h-1zM40 81h2v1h-2zM45 81h1v3h-1zM47 81h1v1h-1zM50 81h1v10h-1zM26 82h1v1h-1zM28 82h1v1h-1zM30 82h1v1h-1zM32 82h1v1h-1zM34 82h1v1h-1zM36 82h1v1h-1zM46 82h1v1h-1zM48 82h1v1h-1zM51 82h1v12h-1zM25 83h1v1h-1zM27 83h1v1h-1zM29 83h1v1h-1zM31 83h1v1h-1zM33 83h1v1h-1zM35 83h1v1h-1zM37 83h1v8h-1zM40 83h1v1h-1zM44 83h1v2h-1zM47 83h1v1h-1zM52 83h1v1h-1zM23 84h2v1h-2zM26 84h1v1h-1zM28 84h1v1h-1zM30 84h1v1h-1zM32 84h1v1h-1zM34 84h1v1h-1zM36 84h1v10h-1zM39 84h1v1h-1zM46 84h1v1h-1zM48 84h1v1h-1zM23 85h1v3h-1zM25 85h1v1h-1zM27 85h1v1h-1zM29 85h1v1h-1zM31 85h1v1h-1zM33 85h1v1h-1zM35 85h1v1h-1zM45 85h1v1h-1zM47 85h1v1h-1zM49 85h1v1h-1zM52 85h1v1h-1zM24 86h1v1h-1zM26 86h1v1h-1zM28 86h1v1h-1zM30 86h1v1h-1zM32 86h1v1h-1zM34 86h1v1h-1zM43 86h2v1h-2zM46 86h1v1h-1zM48 86h1v1h-1zM22 87h1v2h-1zM25 87h1v1h-1zM27 87h1v1h-1zM29 87h1v1h-1zM31 87h1v1h-1zM33 87h1v1h-1zM35 87h1v1h-1zM38 87h1v1h-1zM43 87h1v3h-1zM45 87h1v1h-1zM47 87h1v1h-1zM49 87h1v1h-1zM52 87h1v1h-1zM24 88h1v1h-1zM26 88h1v1h-1zM28 88h1v1h-1zM30 88h1v1h-1zM32 88h1v1h-1zM34 88h1v1h-1zM44 88h1v1h-1zM46 88h1v1h-1zM48 88h1v1h-1zM23 89h1v1h-1zM25 89h1v1h-1zM27 89h1v1h-1zM29 89h1v1h-1zM31 89h1v1h-1zM33 89h1v1h-1zM35 89h1v1h-1zM38 89h2v1h-2zM42 89h1v2h-1zM45 89h1v1h-1zM47 89h1v1h-1zM49 89h1v1h-1zM52 89h1v1h-1zM22 90h1v1h-1zM24 90h1v1h-1zM26 90h1v1h-1zM28 90h1v1h-1zM30 90h1v1h-1zM32 90h1v1h-1zM34 90h1v1h-1zM44 90h1v1h-1zM46 90h1v1h-1zM48 90h1v1h-1zM23 91h1v1h-1zM25 91h1v1h-1zM27 91h1v1h-1zM29 91h1v1h-1zM31 91h1v1h-1zM33 91h1v1h-1zM35 91h1v6h-1zM38 91h1v1h-1zM43 91h1v1h-1zM45 91h1v1h-1zM47 91h1v1h-1zM49 91h1v1h-1zM52 91h1v5h-1zM21 92h2v1h-2zM24 92h1v1h-1zM26 92h1v1h-1zM28 92h1v1h-1zM30 92h1v1h-1zM32 92h1v1h-1zM34 92h1v8h-1zM37 92h1v1h-1zM42 92h1v1h-1zM44 92h1v1h-1zM46 92h1v1h-1zM48 92h1v1h-1zM50 92h1v1h-1zM53 92h1v4h-1zM21 93h1v3h-1zM23 93h1v1h-1zM25 93h1v1h-1zM27 93h1v1h-1zM29 93h1v1h-1zM31 93h1v1h-1zM33 93h1v1h-1zM43 93h1v1h-1zM45 93h1v1h-1zM47 93h1v1h-1zM49 93h1v1h-1zM54 93h1v1h-1zM22 94h1v1h-1zM24 94h1v1h-1zM26 94h1v1h-1zM28 94h1v1h-1zM30 94h1v1h-1zM32 94h1v1h-1zM42 94h1v1h-1zM44 94h1v1h-1zM46 94h1v1h-1zM48 94h1v1h-1zM50 94h1v1h-1zM23 95h1v1h-1zM25 95h1v1h-1zM27 95h1v1h-1zM29 95h1v1h-1zM31 95h1v1h-1zM33 95h1v1h-1zM36 95h2v1h-2zM43 95h1v1h-1zM45 95h1v1h-1zM47 95h1v1h-1zM49 95h1v1h-1zM51 95h1v1h-1zM54 95h2v1h-2zM32 96h1v1h-1zM54 96h1v1h-1zM33 97h1v6h-1zM36 97h1v1h-1zM32 98h1v9h-1zM35 98h1v1h-1zM34 101h2v1h-2zM44 101h1v3h-1zM46 101h1v3h-1zM48 101h1v3h-1zM50 101h1v3h-1zM52 101h1v1h-1zM43 102h1v2h-1zM45 102h1v2h-1zM47 102h1v2h-1zM49 102h1v2h-1zM51 102h1v2h-1zM34 103h1v1h-1zM52 103h2v1h-2zM33 104h1v1h-1zM52 104h1v1h-1zM33 106h1v1h-1z"></path><path fill="#0E1420" d="M46 50h1v1h-1zM47 51h1v1h-1zM33 58h1v1h-1zM35 58h1v1h-1zM37 58h1v1h-1zM39 58h1v1h-1zM41 58h1v1h-1zM32 59h1v1h-1zM34 59h1v1h-1zM36 59h1v1h-1zM38 59h1v1h-1zM40 59h1v1h-1zM33 60h1v1h-1zM35 60h1v1h-1zM37 60h1v1h-1zM39 60h1v1h-1zM41 60h1v1h-1zM32 61h1v1h-1zM34 61h1v1h-1zM36 61h1v1h-1zM38 61h1v1h-1zM40 61h1v1h-1zM31 62h1v1h-1zM33 62h1v1h-1zM35 62h1v1h-1zM37 62h1v1h-1zM39 62h1v1h-1zM41 62h1v1h-1zM30 63h1v1h-1zM32 63h1v1h-1zM34 63h1v1h-1zM36 63h1v1h-1zM38 63h1v1h-1zM40 63h1v1h-1zM49 63h1v1h-1zM31 64h1v1h-1zM33 64h1v1h-1zM35 64h1v1h-1zM37 64h1v1h-1zM39 64h1v1h-1zM41 64h1v1h-1zM30 65h1v1h-1zM32 65h1v1h-1zM34 65h1v1h-1zM36 65h1v1h-1zM38 65h1v1h-1zM40 65h1v1h-1zM31 66h1v1h-1zM33 66h1v1h-1zM35 66h1v1h-1zM37 66h1v1h-1zM39 66h1v1h-1zM41 66h1v1h-1zM30 67h1v1h-1zM32 67h1v1h-1zM34 67h1v1h-1zM36 67h1v1h-1zM38 67h1v1h-1zM40 67h1v1h-1zM31 68h1v1h-1zM33 68h1v1h-1zM35 68h1v1h-1zM37 68h1v1h-1zM39 68h1v1h-1zM41 68h1v1h-1zM30 69h1v1h-1zM32 69h1v1h-1zM34 69h1v1h-1zM36 69h1v1h-1zM38 69h1v1h-1zM40 69h1v1h-1zM31 70h1v1h-1zM33 70h1v1h-1zM35 70h1v1h-1zM37 70h1v1h-1zM39 70h1v1h-1zM41 70h1v1h-1zM45 70h1v1h-1zM30 71h1v1h-1zM32 71h1v1h-1zM34 71h1v1h-1zM36 71h1v1h-1zM38 71h1v1h-1zM40 71h1v1h-1zM29 72h1v1h-1zM31 72h1v1h-1zM33 72h1v1h-1zM35 72h1v1h-1zM37 72h1v1h-1zM39 72h1v1h-1zM44 72h1v1h-1zM28 73h1v1h-1zM30 73h1v1h-1zM32 73h1v1h-1zM34 73h1v1h-1zM36 73h1v1h-1zM38 73h1v1h-1zM29 74h1v1h-1zM31 74h1v1h-1zM33 74h1v1h-1zM35 74h1v1h-1zM37 74h1v1h-1zM39 74h1v1h-1zM28 75h1v1h-1zM30 75h1v1h-1zM32 75h1v1h-1zM34 75h1v1h-1zM36 75h1v1h-1zM38 75h1v1h-1zM27 76h1v1h-1zM29 76h1v1h-1zM31 76h1v1h-1zM33 76h1v1h-1zM35 76h1v1h-1zM37 76h1v1h-1zM39 76h1v1h-1zM43 76h1v1h-1zM26 77h1v1h-1zM28 77h1v1h-1zM30 77h1v1h-1zM32 77h1v1h-1zM34 77h1v1h-1zM36 77h1v1h-1zM38 77h1v1h-1zM27 78h1v1h-1zM29 78h1v1h-1zM31 78h1v1h-1zM33 78h1v1h-1zM35 78h1v1h-1zM37 78h1v1h-1zM42 78h1v1h-1zM47 78h1v1h-1zM26 79h1v1h-1zM28 79h1v1h-1zM30 79h1v1h-1zM32 79h1v1h-1zM34 79h1v1h-1zM36 79h1v1h-1zM46 79h1v1h-1zM27 80h1v1h-1zM29 80h1v1h-1zM31 80h1v1h-1zM33 80h1v1h-1zM35 80h1v1h-1zM37 80h1v1h-1zM47 80h1v1h-1zM26 81h1v1h-1zM28 81h1v1h-1zM30 81h1v1h-1zM32 81h1v1h-1zM34 81h1v1h-1zM36 81h1v1h-1zM46 81h1v1h-1zM48 81h1v1h-1zM25 82h1v1h-1zM27 82h1v1h-1zM29 82h1v1h-1zM31 82h1v1h-1zM33 82h1v1h-1zM35 82h1v1h-1zM37 82h1v1h-1zM41 82h1v1h-1zM47 82h1v1h-1zM24 83h1v1h-1zM26 83h1v1h-1zM28 83h1v1h-1zM30 83h1v1h-1zM32 83h1v1h-1zM34 83h1v1h-1zM36 83h1v1h-1zM46 83h1v1h-1zM48 83h1v1h-1zM25 84h1v1h-1zM27 84h1v1h-1zM29 84h1v1h-1zM31 84h1v1h-1zM33 84h1v1h-1zM35 84h1v1h-1zM40 84h1v1h-1zM45 84h1v1h-1zM47 84h1v1h-1zM49 84h1v1h-1zM24 85h1v1h-1zM26 85h1v1h-1zM28 85h1v1h-1zM30 85h1v1h-1zM32 85h1v1h-1zM34 85h1v1h-1zM44 85h1v1h-1zM46 85h1v1h-1zM48 85h1v1h-1zM25 86h1v1h-1zM27 86h1v1h-1zM29 86h1v1h-1zM31 86h1v1h-1zM33 86h1v1h-1zM35 86h1v1h-1zM45 86h1v1h-1zM47 86h1v1h-1zM49 86h1v1h-1zM24 87h1v1h-1zM26 87h1v1h-1zM28 87h1v1h-1zM30 87h1v1h-1zM32 87h1v1h-1zM34 87h1v1h-1zM44 87h1v1h-1zM46 87h1v1h-1zM48 87h1v1h-1zM23 88h1v1h-1zM25 88h1v1h-1zM27 88h1v1h-1zM29 88h1v1h-1zM31 88h1v1h-1zM33 88h1v1h-1zM35 88h1v1h-1zM45 88h1v1h-1zM47 88h1v1h-1zM49 88h1v1h-1zM22 89h1v1h-1zM24 89h1v1h-1zM26 89h1v1h-1zM28 89h1v1h-1zM30 89h1v1h-1zM32 89h1v1h-1zM34 89h1v1h-1zM44 89h1v1h-1zM46 89h1v1h-1zM48 89h1v1h-1zM23 90h1v1h-1zM25 90h1v1h-1zM27 90h1v1h-1zM29 90h1v1h-1zM31 90h1v1h-1zM33 90h1v1h-1zM35 90h1v1h-1zM39 90h1v1h-1zM43 90h1v1h-1zM45 90h1v1h-1zM47 90h1v1h-1zM49 90h1v1h-1zM22 91h1v1h-1zM24 91h1v1h-1zM26 91h1v1h-1zM28 91h1v1h-1zM30 91h1v1h-1zM32 91h1v1h-1zM34 91h1v1h-1zM42 91h1v1h-1zM44 91h1v1h-1zM46 91h1v1h-1zM48 91h1v1h-1zM50 91h1v1h-1zM23 92h1v1h-1zM25 92h1v1h-1zM27 92h1v1h-1zM29 92h1v1h-1zM31 92h1v1h-1zM33 92h1v1h-1zM38 92h1v1h-1zM43 92h1v1h-1zM45 92h1v1h-1zM47 92h1v1h-1zM49 92h1v1h-1zM22 93h1v1h-1zM24 93h1v1h-1zM26 93h1v1h-1zM28 93h1v1h-1zM30 93h1v1h-1zM32 93h1v1h-1zM42 93h1v1h-1zM44 93h1v1h-1zM46 93h1v1h-1zM48 93h1v1h-1zM50 93h1v1h-1zM23 94h1v1h-1zM25 94h1v1h-1zM27 94h1v1h-1zM29 94h1v1h-1zM31 94h1v1h-1zM33 94h1v1h-1zM43 94h1v1h-1zM45 94h1v1h-1zM47 94h1v1h-1zM49 94h1v1h-1zM51 94h1v1h-1zM20 95h1v1h-1zM22 95h1v2h-1zM24 95h1v2h-1zM26 95h1v2h-1zM28 95h1v2h-1zM30 95h1v2h-1zM32 95h1v1h-1zM44 95h1v2h-1zM46 95h1v2h-1zM48 95h1v2h-1zM50 95h1v2h-1zM31 96h1v2h-1zM33 96h1v1h-1zM37 96h1v1h-1zM52 96h2v1h-2zM55 96h1v1h-1zM32 97h1v1h-1zM53 97h2v1h-2zM36 98h1v1h-1zM35 102h1v1h-1zM42 103h1v1h-1zM34 104h1v1h-1zM44 104h1v1h-1zM46 104h1v1h-1zM48 104h1v1h-1zM50 104h2v1h-2zM53 104h1v1h-1zM51 105h2v1h-2zM33 107h1v1h-1z"></path><path fill="#4A5A6A" d="M17 100h12v1h-12zM16 101h2v1h-2zM19 101h1v1h-1zM21 101h1v1h-1zM23 101h1v1h-1zM25 101h1v1h-1zM27 101h1v1h-1zM29 101h1v2h-1zM16 102h1v1h-1zM28 102h1v1h-1z"></path><path fill="#36444E" d="M18 101h1v3h-1zM20 101h1v3h-1zM22 101h1v3h-1zM24 101h1v3h-1zM26 101h1v3h-1zM28 101h1v1h-1zM17 102h1v2h-1zM19 102h1v2h-1zM21 102h1v2h-1zM23 102h1v2h-1zM25 102h1v2h-1zM27 102h1v2h-1zM28 103h2v1h-2zM28 104h1v1h-1z"></path><path fill="#26313A" d="M16 103h1v1h-1zM18 104h1v1h-1zM20 104h1v1h-1zM22 104h1v1h-1zM24 104h1v1h-1zM26 104h2v1h-2zM29 104h1v1h-1zM27 105h2v1h-2z"></path><path fill="#182028" d="M16 104h2v1h-2zM19 104h1v2h-1zM21 104h1v2h-1zM23 104h1v2h-1zM25 104h1v2h-1zM17 105h2v1h-2zM20 105h1v1h-1zM22 105h1v1h-1zM24 105h1v1h-1zM26 105h1v1h-1z"></path></svg>