<svg width="80" height="112" xmlns="http://www.w3.org/2000/svg" viewBox="0 0 80 112" shape-rendering="crispEdges"><path fill="#06080C" d="M34 4h2v1h-2zM33 5h1v1h-1zM36 5h1v1h-1zM29 6h4v1h-4zM37 6h4v1h-4zM27 7h2v1h-2zM41 7h2v1h-2zM25 8h2v1h-2zM43 8h2v1h-2zM23 9h2v1h-2zM45 9h2v1h-2zM23 10h1v1h-1zM46 10h1v1h-1zM21 11h2v1h-2zM47 11h2v1h-2zM21 12h1v1h-1zM48 12h1v1h-1zM20 13h1v4h-1zM49 13h1v4h-1zM19 17h1v1h-1zM50 17h1v1h-1zM18 18h1v2h-1zM51 18h1v2h-1zM19 20h1v1h-1zM50 20h1v1h-1zM20 21h1v4h-1zM49 21h1v4h-1zM41 24h1v1h-1zM21 25h1v2h-1zM48 25h1v2h-1zM22 26h1v1h-1zM23 27h1v1h-1zM47 27h1v5h-1zM24 28h1v4h-1zM25 29h3v3h-3zM46 29h1v3h-1zM48 29h1v3h-1zM15 30h9v2h-9zM45 30h1v2h-1zM13 31h2v2h-2zM28 31h2v1h-2zM38 31h7v1h-7zM49 31h2v2h-2zM12 33h2v10h-2zM17 33h1v1h-1zM19 33h1v1h-1zM21 33h1v1h-1zM23 33h1v1h-1zM25 33h1v1h-1zM27 33h1v1h-1zM29 33h1v1h-1zM50 33h2v2h-2zM16 34h1v1h-1zM51 35h2v2h-2zM38 36h1v2h-1zM40 36h1v2h-1zM42 36h1v2h-1zM44 36h1v2h-1zM46 36h1v2h-1zM48 36h1v2h-1zM37 37h1v1h-1zM39 37h1v1h-1zM41 37h1v1h-1zM43 37h1v1h-1zM45 37h1v1h-1zM47 37h1v1h-1zM49 37h1v1h-1zM52 37h2v44h-2zM36 38h1v1h-1zM13 43h2v2h-2zM17 43h1v1h-1zM19 43h1v1h-1zM21 43h1v1h-1zM23 43h1v1h-1zM25 43h1v1h-1zM27 43h1v1h-1zM15 44h2v3h-2zM32 45h2v1h-2zM16 47h1v16h-1zM32 53h2v1h-2zM31 56h1v1h-1zM30 57h1v1h-1zM31 61h1v1h-1zM33 61h1v1h-1zM35 61h1v1h-1zM17 63h1v2h-1zM18 64h1v1h-1zM34 64h1v1h-1zM19 65h2v2h-2zM29 65h1v1h-1zM31 65h1v1h-1zM43 65h1v1h-1zM28 66h1v1h-1zM21 67h1v2h-1zM22 68h1v1h-1zM25 68h1v9h-1zM23 69h2v2h-2zM24 71h1v8h-1zM23 77h1v6h-1zM22 79h1v6h-1zM50 80h2v3h-2zM49 81h1v6h-1zM52 81h1v2h-1zM48 82h1v7h-1zM21 83h1v8h-1zM50 83h1v2h-1zM20 85h1v8h-1zM25 85h3v1h-3zM31 85h1v1h-1zM33 85h1v1h-1zM35 85h1v1h-1zM37 85h1v1h-1zM39 85h1v1h-1zM41 85h1v1h-1zM47 85h1v10h-1zM24 86h1v1h-1zM30 86h1v1h-1zM46 88h1v8h-1zM29 90h1v1h-1zM19 91h1v18h-1zM23 92h1v1h-1zM28 92h1v1h-1zM18 93h1v14h-1zM22 94h1v1h-1zM45 94h1v5h-1zM44 95h1v3h-1zM46 98h1v11h-1zM25 99h1v1h-1zM31 99h1v1h-1zM33 99h1v1h-1zM35 99h1v1h-1zM37 99h1v1h-1zM39 99h1v1h-1zM41 99h3v1h-3zM47 99h1v8h-1zM30 100h1v1h-1zM44 106h2v3h-2zM20 107h1v2h-1zM23 107h1v3h-1zM43 107h1v3h-1zM21 108h2v2h-2zM24 108h1v2h-1zM26 108h1v3h-1zM41 108h2v3h-2zM25 109h1v2h-1zM29 109h12v3h-12zM44 109h1v1h-1zM27 110h2v2h-2z"></path><path fill="#241A12" d="M34 5h1v1h-1zM33 6h1v1h-1zM29 7h4v1h-4zM37 7h3v1h-3zM27 8h2v1h-2zM41 8h1v1h-1zM25 9h2v1h-2zM43 9h1v1h-1zM24 10h1v1h-1zM22 12h1v1h-1zM21 13h1v4h-1zM28 14h1v2h-1zM30 14h1v2h-1zM32 14h1v2h-1zM34 14h1v2h-1zM36 14h1v2h-1zM38 14h1v2h-1zM40 14h1v2h-1zM42 14h1v2h-1zM44 14h1v2h-1zM27 15h1v1h-1zM29 15h1v1h-1zM31 15h1v1h-1zM33 15h1v1h-1zM35 15h1v1h-1zM37 15h1v1h-1zM39 15h1v1h-1zM41 15h1v1h-1zM43 15h1v1h-1zM45 15h3v1h-3zM25 16h2v1h-2zM20 17h1v1h-1zM24 17h1v1h-1zM19 18h1v2h-1zM20 20h1v1h-1zM21 21h1v4h-1zM37 21h1v1h-1zM39 21h1v1h-1zM41 21h1v1h-1zM43 21h1v1h-1zM22 25h1v1h-1zM24 26h1v2h-1zM25 28h2v1h-2z"></path><path fill="#FFE9A8" d="M35 5h1v1h-1zM36 6h1v1h-1zM40 7h1v1h-1zM42 8h1v1h-1zM44 9h1v1h-1zM45 10h1v1h-1zM46 11h1v1h-1zM47 12h1v1h-1zM48 13h1v4h-1zM49 17h1v1h-1zM50 18h1v2h-1zM49 20h1v1h-1zM48 21h1v4h-1zM47 25h1v2h-1zM46 27h1v2h-1zM45 29h1v1h-1zM44 30h1v1h-1zM37 31h1v1h-1zM48 32h1v1h-1zM49 33h1v2h-1zM50 35h1v2h-1zM51 37h1v43h-1zM41 48h4v1h-4zM40 49h1v13h-1zM42 49h1v1h-1zM44 49h2v1h-2zM41 50h1v1h-1zM45 50h1v1h-1zM41 52h1v1h-1zM41 54h1v1h-1zM41 56h1v1h-1zM41 58h1v1h-1zM41 60h1v1h-1zM49 80h1v1h-1zM48 81h1v1h-1zM47 82h1v3h-1zM46 85h1v3h-1zM45 88h1v6h-1zM44 94h1v1h-1zM43 95h1v3h-1zM44 98h1v1h-1zM45 99h1v7h-1zM43 106h1v1h-1zM42 107h1v1h-1zM40 108h1v1h-1zM28 109h1v1h-1z"></path><path fill="#7A6242" d="M34 6h2v1h-2zM33 7h2v1h-2zM36 7h1v1h-1zM29 8h5v1h-5zM37 8h4v1h-4zM27 9h2v1h-2zM30 9h1v1h-1zM32 9h1v1h-1zM38 9h1v1h-1zM40 9h3v1h-3zM25 10h3v1h-3zM41 10h1v1h-1zM43 10h2v1h-2zM23 11h2v1h-2zM26 11h1v1h-1zM44 11h2v1h-2zM23 12h1v1h-1zM45 12h1v1h-1zM22 13h1v5h-1zM47 13h1v1h-1zM23 14h1v1h-1zM23 16h1v1h-1zM21 17h1v2h-1zM24 20h1v2h-1zM22 21h1v2h-1zM25 21h1v2h-1zM23 22h1v1h-1zM23 24h1v1h-1zM26 25h1v1h-1z"></path><path fill="#5A4832" d="M35 7h1v4h-1zM34 8h1v2h-1zM36 8h1v4h-1zM29 9h1v4h-1zM31 9h1v4h-1zM33 9h1v2h-1zM37 9h1v4h-1zM39 9h1v4h-1zM28 10h1v4h-1zM30 10h1v2h-1zM32 10h1v2h-1zM38 10h1v2h-1zM40 10h1v2h-1zM42 10h1v4h-1zM25 11h1v4h-1zM27 11h1v2h-1zM34 11h1v1h-1zM41 11h1v2h-1zM43 11h1v3h-1zM24 12h1v4h-1zM26 12h1v2h-1zM33 12h1v1h-1zM35 12h1v1h-1zM44 12h1v2h-1zM46 12h1v2h-1zM23 13h1v1h-1zM30 13h1v1h-1zM32 13h1v1h-1zM34 13h1v1h-1zM36 13h1v1h-1zM38 13h1v1h-1zM40 13h1v1h-1zM45 13h1v1h-1zM47 14h1v1h-1zM23 15h1v1h-1zM23 17h1v5h-1zM20 18h1v1h-1zM22 18h1v3h-1zM36 20h8v1h-8zM24 22h1v4h-1zM22 23h2v1h-2zM25 23h1v3h-1zM23 25h1v1h-1z"></path><path fill="#3A2C1E" d="M34 10h1v1h-1zM33 11h1v1h-1zM35 11h1v1h-1zM30 12h1v1h-1zM32 12h1v1h-1zM34 12h1v1h-1zM36 12h1v1h-1zM38 12h1v1h-1zM40 12h1v1h-1zM27 13h1v2h-1zM29 13h1v2h-1zM31 13h1v2h-1zM33 13h1v2h-1zM35 13h1v2h-1zM37 13h1v2h-1zM39 13h1v2h-1zM41 13h1v2h-1zM26 14h1v2h-1zM43 14h1v1h-1zM45 14h2v1h-2zM25 15h1v1h-1zM24 16h1v1h-1zM20 19h2v1h-2zM21 20h1v1h-1zM36 21h1v1h-1zM38 21h1v1h-1zM40 21h1v1h-1zM42 21h1v1h-1zM22 24h1v1h-1zM23 26h1v1h-1zM25 26h2v2h-2zM27 27h1v1h-1z"></path><path fill="#F2CDA6" d="M27 16h21v1h-21zM25 17h2v1h-2zM28 17h1v1h-1zM30 17h1v1h-1zM32 17h1v1h-1zM34 17h1v1h-1zM36 17h1v1h-1zM38 17h1v1h-1zM40 17h1v1h-1zM42 17h1v1h-1zM44 17h1v1h-1zM46 17h1v1h-1zM48 17h1v1h-1zM25 18h1v1h-1zM44 20h2v1h-2zM26 21h1v2h-1zM44 21h1v1h-1zM27 22h1v1h-1zM36 22h2v1h-2zM42 22h2v1h-2zM36 23h1v1h-1zM42 23h1v3h-1zM27 24h1v1h-1zM43 24h1v1h-1zM28 25h1v1h-1zM38 25h1v1h-1zM41 25h1v2h-1zM39 26h2v1h-2zM40 27h1v1h-1zM29 28h1v1h-1zM30 29h1v1h-1zM30 31h1v2h-1zM31 32h1v1h-1z"></path><path fill="#D8A87C" d="M27 17h1v5h-1zM29 17h1v11h-1zM31 17h1v4h-1zM33 17h1v4h-1zM35 17h1v4h-1zM37 17h1v1h-1zM39 17h1v1h-1zM41 17h1v1h-1zM43 17h1v1h-1zM45 17h1v3h-1zM47 17h1v6h-1zM24 18h1v1h-1zM26 18h1v3h-1zM28 18h1v7h-1zM30 18h1v2h-1zM32 18h1v2h-1zM34 18h1v2h-1zM44 18h1v2h-1zM46 18h1v4h-1zM48 18h2v1h-2zM30 21h1v1h-1zM32 21h1v1h-1zM34 21h1v1h-1zM45 21h1v4h-1zM31 22h1v1h-1zM33 22h1v1h-1zM35 22h1v1h-1zM44 22h1v4h-1zM26 23h2v1h-2zM30 23h1v1h-1zM32 23h1v1h-1zM34 23h1v1h-1zM37 23h1v4h-1zM43 23h1v1h-1zM46 23h1v1h-1zM31 24h1v1h-1zM33 24h1v1h-1zM35 24h2v1h-2zM27 25h1v1h-1zM30 25h1v4h-1zM32 25h1v1h-1zM34 25h1v1h-1zM36 25h1v1h-1zM43 25h1v2h-1zM28 26h1v2h-1zM31 26h1v6h-1zM33 26h1v1h-1zM35 26h1v1h-1zM38 26h1v3h-1zM45 26h1v1h-1zM32 27h1v1h-1zM34 27h1v1h-1zM36 27h1v1h-1zM39 27h1v1h-1zM41 27h2v1h-2zM44 27h1v1h-1zM33 28h1v1h-1zM35 28h1v1h-1zM37 28h1v1h-1zM29 29h1v1h-1zM32 29h1v5h-1zM34 29h1v1h-1zM36 29h1v1h-1zM30 30h1v1h-1zM33 30h1v4h-1zM35 30h1v1h-1zM37 30h1v1h-1zM34 31h1v1h-1zM36 31h1v1h-1zM30 33h2v1h-2zM31 34h1v1h-1zM30 62h4v1h-4z"></path><path fill="#B8875C" d="M36 18h8v1h-8zM24 19h2v1h-2zM48 19h1v1h-1zM25 20h1v1h-1zM30 20h1v1h-1zM32 20h1v1h-1zM34 20h1v1h-1zM31 21h1v1h-1zM33 21h1v1h-1zM35 21h1v1h-1zM30 22h1v1h-1zM32 22h1v1h-1zM34 22h1v1h-1zM46 22h1v1h-1zM31 23h1v1h-1zM33 23h1v1h-1zM35 23h1v1h-1zM26 24h1v1h-1zM30 24h1v1h-1zM32 24h1v1h-1zM34 24h1v1h-1zM46 24h1v2h-1zM31 25h1v1h-1zM33 25h1v1h-1zM35 25h1v1h-1zM45 25h1v1h-1zM27 26h1v1h-1zM32 26h1v1h-1zM34 26h1v1h-1zM36 26h1v1h-1zM42 26h1v1h-1zM44 26h1v1h-1zM33 27h1v1h-1zM35 27h1v1h-1zM37 27h1v1h-1zM43 27h1v2h-1zM28 28h1v1h-1zM32 28h1v1h-1zM34 28h1v1h-1zM36 28h1v1h-1zM39 28h3v1h-3zM33 29h1v1h-1zM35 29h1v1h-1zM37 29h2v1h-2zM29 30h1v1h-1zM34 30h1v1h-1zM36 30h1v1h-1zM35 31h1v2h-1zM34 32h1v2h-1zM30 34h1v1h-1zM32 34h2v1h-2zM31 35h2v1h-2zM30 63h1v1h-1zM32 63h1v1h-1z"></path><path fill="#8E6540" d="M36 19h8v1h-8zM49 19h1v1h-1zM48 20h1v1h-1zM47 23h1v2h-1zM46 26h1v1h-1zM45 27h1v2h-1zM27 28h1v1h-1zM42 28h1v3h-1zM44 28h1v2h-1zM28 29h1v2h-1zM39 29h3v2h-3zM43 29h1v2h-1zM38 30h1v1h-1zM36 32h2v1h-2zM35 33h2v1h-2zM34 34h1v1h-1zM33 35h1v1h-1zM31 63h1v1h-1zM33 63h1v1h-1z"></path><path fill="#141A22" d="M38 22h4v1h-4zM40 23h1v1h-1zM15 32h2v1h-2zM38 32h10v1h-10zM14 33h1v8h-1zM37 33h2v1h-2zM40 33h1v1h-1zM42 33h1v1h-1zM44 33h1v1h-1zM46 33h1v1h-1zM48 33h1v1h-1zM15 34h1v1h-1zM35 34h3v1h-3zM34 35h1v3h-1zM36 35h1v1h-1zM15 36h1v1h-1zM35 36h1v1h-1zM33 37h1v2h-1zM15 38h1v1h-1zM32 39h1v3h-1zM50 39h1v41h-1zM15 40h1v1h-1zM33 40h1v1h-1zM16 41h1v1h-1zM31 41h1v2h-1zM29 42h2v1h-2zM30 43h1v1h-1zM30 45h1v11h-1zM31 46h1v1h-1zM34 46h2v1h-2zM34 47h1v1h-1zM31 48h3v1h-3zM32 49h1v1h-1zM31 50h1v1h-1zM31 52h1v1h-1zM31 54h1v1h-1zM34 54h2v1h-2zM29 55h1v2h-1zM34 55h1v5h-1zM35 56h1v1h-1zM28 57h1v7h-1zM29 58h1v1h-1zM35 58h1v1h-1zM33 59h1v1h-1zM29 60h1v1h-1zM29 62h1v1h-1zM34 62h1v1h-1zM27 63h1v2h-1zM45 64h3v1h-3zM26 65h1v13h-1zM46 65h1v1h-1zM27 66h1v1h-1zM46 67h1v17h-1zM27 68h1v1h-1zM47 68h1v1h-1zM27 70h1v1h-1zM47 70h1v1h-1zM27 72h1v1h-1zM47 72h1v1h-1zM27 74h1v1h-1zM47 74h1v1h-1zM27 76h1v1h-1zM47 76h1v1h-1zM25 77h1v2h-1zM47 78h1v1h-1zM24 79h1v5h-1zM25 80h1v1h-1zM47 80h2v1h-2zM25 82h1v1h-1zM23 83h1v2h-1zM28 83h1v1h-1zM45 83h1v2h-1zM29 84h2v1h-2zM43 84h2v1h-2zM22 85h1v7h-1zM44 85h1v1h-1zM23 86h1v1h-1zM28 87h1v3h-1zM44 87h1v7h-1zM23 88h1v1h-1zM29 88h1v1h-1zM27 89h1v2h-1zM23 90h1v1h-1zM21 91h1v2h-1zM26 91h1v7h-1zM27 92h1v1h-1zM20 93h1v12h-1zM43 93h1v2h-1zM21 94h1v1h-1zM27 94h1v1h-1zM42 95h1v3h-1zM21 96h1v1h-1zM27 96h1v1h-1zM22 97h1v1h-1zM25 97h1v1h-1zM28 97h1v1h-1zM41 97h1v1h-1zM21 98h1v1h-1zM23 98h1v1h-1zM29 98h2v1h-2zM44 99h1v1h-1zM21 100h1v1h-1zM26 100h2v1h-2zM26 101h1v5h-1zM44 101h1v5h-1zM21 102h1v1h-1zM27 102h1v1h-1zM21 104h1v1h-1zM27 104h1v1h-1zM30 105h1v1h-1zM43 105h1v1h-1zM25 106h1v1h-1zM31 106h12v1h-12zM32 107h1v1h-1zM34 107h1v1h-1zM36 107h1v1h-1zM38 107h1v1h-1zM40 107h1v1h-1z"></path><path fill="#0E1218" d="M38 23h2v1h-2zM39 24h1v1h-1zM17 32h13v1h-13zM15 33h2v1h-2zM39 33h1v3h-1zM41 33h1v3h-1zM43 33h1v3h-1zM45 33h1v3h-1zM47 33h1v3h-1zM38 34h1v2h-1zM40 34h1v2h-1zM42 34h1v2h-1zM44 34h1v2h-1zM46 34h1v2h-1zM48 34h1v2h-1zM15 35h1v1h-1zM35 35h1v1h-1zM37 35h1v1h-1zM49 35h1v2h-1zM36 36h1v1h-1zM15 37h1v1h-1zM35 37h1v4h-1zM50 37h1v2h-1zM34 38h1v4h-1zM15 39h1v1h-1zM33 39h1v1h-1zM14 41h2v1h-2zM33 41h1v2h-1zM15 42h1v1h-1zM17 42h12v1h-12zM32 42h1v2h-1zM35 42h1v1h-1zM31 43h1v3h-1zM34 43h1v1h-1zM30 44h1v1h-1zM35 44h1v1h-1zM34 45h1v1h-1zM31 47h1v1h-1zM35 47h1v2h-1zM31 49h1v1h-1zM33 49h2v1h-2zM32 50h2v2h-2zM35 50h1v1h-1zM31 51h1v1h-1zM34 51h1v1h-1zM35 52h1v1h-1zM31 53h1v1h-1zM34 53h1v1h-1zM35 55h1v1h-1zM29 57h1v1h-1zM35 57h1v1h-1zM29 59h1v1h-1zM35 59h1v2h-1zM30 60h4v1h-4zM29 61h1v1h-1zM34 61h1v1h-1zM29 63h1v1h-1zM34 63h1v1h-1zM28 64h1v1h-1zM30 64h3v1h-3zM41 64h4v1h-4zM27 65h1v1h-1zM47 65h1v3h-1zM46 66h1v1h-1zM27 67h1v1h-1zM27 69h1v1h-1zM47 69h1v1h-1zM27 71h1v1h-1zM47 71h1v1h-1zM27 73h1v1h-1zM47 73h1v1h-1zM27 75h1v1h-1zM47 75h1v1h-1zM27 77h1v6h-1zM47 77h1v1h-1zM26 78h1v6h-1zM25 79h1v1h-1zM47 79h1v1h-1zM25 81h1v1h-1zM47 81h1v1h-1zM25 83h1v1h-1zM24 84h1v1h-1zM27 84h2v1h-2zM31 84h12v1h-12zM23 85h1v1h-1zM28 85h3v1h-3zM45 85h1v3h-1zM28 86h2v1h-2zM44 86h1v1h-1zM23 87h1v1h-1zM29 87h1v1h-1zM23 89h1v1h-1zM28 90h1v1h-1zM27 91h1v1h-1zM22 92h1v1h-1zM21 93h1v1h-1zM27 93h1v1h-1zM21 95h1v1h-1zM27 95h1v1h-1zM21 97h1v1h-1zM27 97h1v2h-1zM22 98h1v8h-1zM24 98h2v1h-2zM28 98h1v8h-1zM31 98h11v1h-11zM43 98h1v1h-1zM21 99h1v1h-1zM23 99h1v7h-1zM26 99h1v1h-1zM29 99h2v1h-2zM29 100h1v7h-1zM44 100h1v1h-1zM21 101h1v1h-1zM27 101h1v1h-1zM21 103h1v1h-1zM27 103h1v1h-1zM20 105h2v1h-2zM27 105h1v2h-1zM21 106h1v1h-1zM24 106h1v1h-1zM30 106h1v2h-1zM28 107h1v1h-1zM31 107h1v1h-1zM33 107h1v1h-1zM35 107h1v1h-1zM37 107h1v1h-1zM39 107h1v1h-1z"></path><path fill="#090C10" d="M41 23h1v1h-1zM38 24h1v1h-1zM40 24h1v2h-1zM39 25h1v1h-1zM18 33h1v1h-1zM20 33h1v1h-1zM22 33h1v1h-1zM24 33h1v1h-1zM26 33h1v1h-1zM28 33h1v1h-1zM37 36h1v1h-1zM39 36h1v1h-1zM41 36h1v1h-1zM43 36h1v1h-1zM45 36h1v1h-1zM47 36h1v1h-1zM36 37h1v1h-1zM49 38h1v1h-1zM35 41h1v1h-1zM14 42h1v1h-1zM16 42h1v2h-1zM34 42h1v1h-1zM15 43h1v1h-1zM18 43h1v1h-1zM20 43h1v1h-1zM22 43h1v1h-1zM24 43h1v1h-1zM26 43h1v1h-1zM28 43h2v1h-2zM33 43h1v2h-1zM35 43h1v1h-1zM29 44h1v1h-1zM32 44h1v1h-1zM34 44h1v1h-1zM35 45h1v1h-1zM34 48h1v1h-1zM35 49h1v1h-1zM34 50h1v1h-1zM35 51h1v1h-1zM32 52h3v1h-3zM35 53h1v1h-1zM31 55h1v1h-1zM30 56h1v1h-1zM34 60h1v1h-1zM30 61h1v1h-1zM32 61h1v1h-1zM35 62h1v1h-1zM29 64h1v1h-1zM33 64h1v1h-1zM40 64h1v1h-1zM28 65h1v1h-1zM30 65h1v1h-1zM32 65h1v1h-1zM41 65h2v1h-2zM44 65h2v1h-2zM45 66h1v1h-1zM27 83h1v1h-1zM25 84h2v1h-2zM46 84h1v1h-1zM24 85h1v1h-1zM32 85h1v1h-1zM34 85h1v1h-1zM36 85h1v1h-1zM38 85h1v1h-1zM40 85h1v1h-1zM42 85h2v1h-2zM27 86h1v1h-1zM43 86h1v1h-1zM29 89h1v1h-1zM23 91h1v1h-1zM28 91h1v1h-1zM22 93h1v1h-1zM26 98h1v1h-1zM42 98h1v1h-1zM24 99h1v1h-1zM27 99h1v1h-1zM32 99h1v1h-1zM34 99h1v1h-1zM36 99h1v1h-1zM38 99h1v1h-1zM40 99h1v1h-1zM43 100h1v1h-1zM20 106h1v1h-1zM22 106h2v1h-2zM26 106h1v2h-1zM28 106h1v1h-1zM21 107h2v1h-2zM24 107h2v1h-2zM27 107h1v3h-1zM29 107h1v2h-1zM41 107h1v1h-1zM25 108h1v1h-1zM28 108h1v1h-1zM30 108h10v1h-10z"></path><path fill="#E2EAF0" d="M17 34h13v1h-13zM16 35h1v4h-1zM18 35h1v1h-1zM20 35h1v1h-1zM22 35h1v1h-1zM24 35h1v1h-1zM26 35h1v1h-1zM28 35h1v1h-1zM30 35h1v1h-1zM17 36h1v1h-1zM31 36h2v1h-2zM17 38h1v1h-1zM31 100h12v1h-12zM30 101h1v2h-1zM32 101h1v1h-1zM34 101h1v1h-1zM36 101h1v1h-1zM38 101h1v1h-1zM40 101h1v1h-1zM42 101h2v1h-2zM31 102h1v1h-1zM43 102h1v1h-1z"></path><path fill="#B8C4CE" d="M17 35h1v1h-1zM19 35h1v5h-1zM21 35h1v4h-1zM23 35h1v4h-1zM25 35h1v4h-1zM27 35h1v4h-1zM29 35h1v4h-1zM18 36h1v4h-1zM20 36h1v2h-1zM22 36h1v2h-1zM24 36h1v2h-1zM26 36h1v2h-1zM28 36h1v2h-1zM30 36h1v4h-1zM17 37h1v1h-1zM31 37h2v1h-2zM31 38h1v1h-1zM16 39h2v1h-2zM20 39h1v1h-1zM22 39h1v1h-1zM24 39h1v1h-1zM26 39h1v1h-1zM28 39h1v1h-1zM17 40h1v1h-1zM31 101h1v1h-1zM33 101h1v3h-1zM35 101h1v3h-1zM37 101h1v3h-1zM39 101h1v3h-1zM41 101h1v3h-1zM32 102h1v2h-1zM34 102h1v2h-1zM36 102h1v2h-1zM38 102h1v2h-1zM40 102h1v2h-1zM42 102h1v2h-1zM30 103h2v1h-2zM31 104h1v1h-1z"></path><path fill="#8A96A4" d="M33 36h1v1h-1zM20 38h1v1h-1zM22 38h1v1h-1zM24 38h1v1h-1zM26 38h1v1h-1zM28 38h1v1h-1zM21 39h1v2h-1zM23 39h1v2h-1zM25 39h1v2h-1zM27 39h1v2h-1zM29 39h1v2h-1zM31 39h1v1h-1zM16 40h1v1h-1zM18 40h2v1h-2zM17 41h2v1h-2zM43 103h1v1h-1zM30 104h1v1h-1zM32 104h2v1h-2zM35 104h1v1h-1zM37 104h1v1h-1zM39 104h1v1h-1zM41 104h1v1h-1zM31 105h2v1h-2z"></path><path fill="#5E6A7A" d="M32 38h1v1h-1zM20 40h1v2h-1zM22 40h1v2h-1zM24 40h1v2h-1zM26 40h1v2h-1zM28 40h1v2h-1zM30 40h2v1h-2zM19 41h1v1h-1zM21 41h1v1h-1zM23 41h1v1h-1zM25 41h1v1h-1zM27 41h1v1h-1zM29 41h2v1h-2zM34 104h1v2h-1zM36 104h1v2h-1zM38 104h1v2h-1zM40 104h1v2h-1zM42 104h2v1h-2zM33 105h1v1h-1zM35 105h1v1h-1zM37 105h1v1h-1zM39 105h1v1h-1zM41 105h2v1h-2z"></path><path fill="#F0D080" d="M37 38h2v1h-2zM47 38h2v1h-2zM36 39h1v25h-1zM48 39h2v1h-2zM37 40h1v1h-1zM49 40h1v1h-1zM48 41h1v37h-1zM37 42h1v1h-1zM49 42h1v1h-1zM37 44h1v1h-1zM49 44h1v1h-1zM37 46h1v1h-1zM49 46h1v1h-1zM37 48h1v1h-1zM49 48h1v1h-1zM37 50h1v1h-1zM49 50h1v1h-1zM37 52h1v1h-1zM49 52h1v1h-1zM37 54h1v1h-1zM49 54h1v1h-1zM37 56h1v1h-1zM49 56h1v1h-1zM37 58h1v1h-1zM49 58h1v1h-1zM37 60h1v1h-1zM49 60h1v1h-1zM37 62h1v1h-1zM49 62h1v1h-1zM35 63h1v2h-1zM38 63h1v1h-1zM39 64h1v1h-1zM49 64h1v1h-1zM33 65h2v1h-2zM40 65h1v1h-1zM29 66h2v1h-2zM43 66h2v1h-2zM49 66h1v1h-1zM28 67h1v14h-1zM44 67h2v1h-2zM29 68h1v1h-1zM45 68h1v1h-1zM49 68h1v1h-1zM44 69h1v13h-1zM29 70h1v1h-1zM45 70h1v1h-1zM49 70h1v1h-1zM29 72h1v1h-1zM45 72h1v1h-1zM49 72h1v1h-1zM29 74h1v1h-1zM45 74h1v1h-1zM49 74h1v1h-1zM29 76h1v1h-1zM45 76h1v1h-1zM49 76h1v1h-1zM29 78h1v1h-1zM45 78h1v1h-1zM29 80h1v1h-1zM45 80h1v1h-1zM30 81h1v1h-1zM43 81h1v1h-1z"></path><path fill="#C29A44" d="M39 38h8v1h-8zM37 39h2v1h-2zM48 40h1v1h-1zM37 41h1v1h-1zM49 41h1v1h-1zM37 43h1v1h-1zM49 43h1v1h-1zM37 45h1v1h-1zM49 45h1v1h-1zM37 47h1v1h-1zM49 47h1v1h-1zM37 49h1v1h-1zM49 49h1v1h-1zM37 51h1v1h-1zM49 51h1v1h-1zM37 53h1v1h-1zM49 53h1v1h-1zM37 55h1v1h-1zM49 55h1v1h-1zM37 57h1v1h-1zM49 57h1v1h-1zM37 59h1v1h-1zM49 59h1v1h-1zM37 61h1v1h-1zM49 61h1v1h-1zM37 63h1v2h-1zM49 63h1v1h-1zM36 64h1v2h-1zM38 64h1v2h-1zM35 65h1v1h-1zM39 65h1v1h-1zM49 65h1v1h-1zM31 66h3v1h-3zM41 66h2v1h-2zM29 67h2v1h-2zM49 67h1v1h-1zM44 68h1v1h-1zM29 69h1v1h-1zM45 69h1v1h-1zM49 69h1v1h-1zM29 71h1v1h-1zM45 71h1v1h-1zM49 71h1v1h-1zM29 73h1v1h-1zM45 73h1v1h-1zM49 73h1v1h-1zM29 75h1v1h-1zM45 75h1v1h-1zM49 75h1v1h-1zM29 77h1v1h-1zM45 77h1v1h-1zM49 77h1v2h-1zM48 78h1v1h-1zM29 79h1v1h-1zM45 79h1v1h-1zM28 81h2v1h-2zM29 82h1v1h-1zM31 82h13v1h-13z"></path><path fill="#5E4818" d="M39 39h1v1h-1zM41 39h1v1h-1zM43 39h1v1h-1zM45 39h1v1h-1zM38 40h1v1h-1zM36 66h1v2h-1zM31 67h1v1h-1zM33 67h3v1h-3zM37 67h5v1h-5zM30 68h1v1h-1zM49 79h1v1h-1zM44 82h2v1h-2zM31 83h1v1h-1zM33 83h1v1h-1zM35 83h1v1h-1zM37 83h1v1h-1zM39 83h1v1h-1zM41 83h1v1h-1zM43 83h2v1h-2z"></path><path fill="#8E6C26" d="M40 39h1v1h-1zM42 39h1v1h-1zM44 39h1v1h-1zM46 39h2v1h-2zM47 40h1v1h-1zM37 65h1v2h-1zM34 66h2v1h-2zM38 66h3v1h-3zM32 67h1v1h-1zM42 67h2v1h-2zM43 68h1v1h-1zM48 79h1v1h-1zM45 81h1v1h-1zM28 82h1v1h-1zM30 82h1v2h-1zM29 83h1v1h-1zM32 83h1v1h-1zM34 83h1v1h-1zM36 83h1v1h-1zM38 83h1v1h-1zM40 83h1v1h-1zM42 83h1v1h-1z"></path><path fill="#D8AC58" d="M39 40h8v1h-8zM38 41h1v20h-1zM40 41h1v1h-1zM42 41h1v1h-1zM44 41h1v1h-1zM46 41h2v1h-2zM39 42h1v1h-1zM47 42h1v1h-1zM39 44h1v1h-1zM39 46h1v1h-1zM39 48h1v1h-1zM46 49h1v13h-1zM39 50h1v1h-1zM47 50h1v1h-1zM39 52h1v1h-1zM47 52h1v1h-1zM39 54h1v1h-1zM47 54h1v1h-1zM39 56h1v1h-1zM47 56h1v1h-1zM39 58h1v1h-1zM47 58h1v1h-1zM39 60h1v1h-1zM47 60h1v1h-1zM31 68h12v1h-12zM30 69h1v10h-1zM32 69h1v1h-1zM34 69h1v1h-1zM36 69h1v1h-1zM38 69h1v1h-1zM40 69h1v1h-1zM42 69h2v1h-2zM31 70h1v1h-1zM43 70h1v1h-1zM31 72h1v1h-1zM31 74h1v1h-1zM31 76h1v1h-1zM31 78h1v1h-1z"></path><path fill="#A8802E" d="M39 41h1v1h-1zM41 41h1v5h-1zM43 41h1v4h-1zM45 41h1v4h-1zM40 42h1v5h-1zM42 42h1v2h-1zM44 42h1v2h-1zM46 42h1v2h-1zM39 43h1v1h-1zM47 43h1v2h-1zM39 45h1v1h-1zM42 45h1v1h-1zM44 45h1v1h-1zM46 45h1v1h-1zM45 46h1v1h-1zM47 46h1v1h-1zM39 47h1v1h-1zM46 47h1v2h-1zM47 48h1v2h-1zM39 49h1v1h-1zM39 51h1v1h-1zM47 51h1v1h-1zM39 53h1v1h-1zM47 53h1v1h-1zM39 55h1v1h-1zM47 55h1v1h-1zM39 57h1v1h-1zM47 57h1v1h-1zM39 59h1v1h-1zM47 59h1v1h-1zM38 61h2v1h-2zM47 61h1v2h-1zM39 62h1v1h-1zM46 62h1v1h-1zM31 69h1v1h-1zM33 69h1v11h-1zM35 69h1v4h-1zM37 69h1v4h-1zM39 69h1v4h-1zM41 69h1v4h-1zM32 70h1v10h-1zM34 70h1v2h-1zM36 70h1v2h-1zM38 70h1v2h-1zM40 70h1v2h-1zM42 70h1v2h-1zM31 71h1v1h-1zM43 71h1v2h-1zM31 73h1v1h-1zM34 73h1v1h-1zM36 73h1v1h-1zM38 73h1v1h-1zM40 73h1v1h-1zM42 73h1v1h-1zM35 74h1v1h-1zM37 74h1v1h-1zM39 74h1v1h-1zM41 74h1v1h-1zM43 74h1v1h-1zM31 75h1v1h-1zM34 75h1v1h-1zM36 75h1v1h-1zM38 75h1v1h-1zM40 75h1v1h-1zM42 75h1v1h-1zM35 76h1v1h-1zM37 76h1v1h-1zM39 76h1v1h-1zM41 76h1v1h-1zM43 76h1v1h-1zM31 77h1v1h-1zM34 77h1v1h-1zM36 77h1v1h-1zM38 77h1v1h-1zM40 77h1v1h-1zM42 77h1v1h-1zM35 78h1v1h-1zM37 78h1v1h-1zM39 78h1v1h-1zM41 78h1v1h-1zM43 78h1v1h-1zM30 79h2v1h-2zM34 79h1v1h-1zM36 79h1v1h-1zM38 79h1v1h-1zM40 79h1v1h-1zM42 79h1v1h-1zM31 80h1v1h-1z"></path><path fill="#0A1020" d="M17 44h1v19h-1zM18 63h1v1h-1zM21 63h1v1h-1zM19 64h2v1h-2zM43 91h1v2h-1zM42 94h1v1h-1zM41 95h1v2h-1zM32 96h1v2h-1zM34 96h1v2h-1zM36 96h1v2h-1zM38 96h1v2h-1zM40 96h1v2h-1zM31 97h1v1h-1zM33 97h1v1h-1zM35 97h1v1h-1zM37 97h1v1h-1zM39 97h1v1h-1z"></path><path fill="#2E3E60" d="M18 44h4v1h-4zM18 45h1v16h-1zM20 45h1v1h-1zM19 46h1v1h-1zM19 48h1v1h-1zM19 50h1v1h-1zM19 52h1v1h-1zM19 54h1v1h-1zM19 56h1v1h-1zM19 58h1v1h-1zM19 60h1v1h-1zM31 86h12v1h-12zM30 87h1v5h-1zM32 87h1v1h-1zM34 87h1v1h-1zM36 87h1v1h-1zM38 87h1v1h-1zM40 87h1v1h-1zM42 87h2v1h-2zM31 88h1v1h-1zM43 88h1v1h-1zM31 90h1v1h-1zM29 91h1v2h-1zM28 93h1v2h-1zM29 94h1v1h-1z"></path><path fill="#3A4E74" d="M22 44h7v1h-7zM22 45h1v20h-1zM24 45h1v1h-1zM26 45h1v1h-1zM28 45h2v1h-2zM23 46h1v1h-1zM29 46h1v1h-1zM23 48h1v1h-1zM23 50h1v1h-1zM23 52h1v1h-1zM23 54h1v1h-1zM23 56h1v1h-1zM23 58h1v1h-1zM23 60h1v1h-1zM23 62h1v1h-1zM23 64h1v1h-1z"></path><path fill="#7A5C1E" d="M42 44h1v1h-1zM44 44h1v1h-1zM46 44h1v1h-1zM43 45h1v2h-1zM45 45h1v1h-1zM47 45h1v1h-1zM41 46h1v1h-1zM46 46h1v1h-1zM40 47h1v1h-1zM47 47h1v1h-1zM45 48h1v1h-1zM38 62h1v1h-1zM39 63h1v1h-1zM46 63h1v1h-1zM34 72h1v1h-1zM36 72h1v1h-1zM38 72h1v1h-1zM40 72h1v1h-1zM42 72h1v1h-1zM35 73h1v1h-1zM37 73h1v1h-1zM39 73h1v1h-1zM41 73h1v1h-1zM43 73h1v1h-1zM34 74h1v1h-1zM36 74h1v1h-1zM38 74h1v1h-1zM40 74h1v1h-1zM42 74h1v1h-1zM35 75h1v1h-1zM37 75h1v1h-1zM39 75h1v1h-1zM41 75h1v1h-1zM43 75h1v1h-1zM34 76h1v1h-1zM36 76h1v1h-1zM38 76h1v1h-1zM40 76h1v1h-1zM42 76h1v1h-1zM35 77h1v1h-1zM37 77h1v1h-1zM39 77h1v1h-1zM41 77h1v1h-1zM43 77h1v1h-1zM34 78h1v1h-1zM36 78h1v1h-1zM38 78h1v1h-1zM40 78h1v1h-1zM42 78h1v1h-1zM35 79h1v2h-1zM37 79h1v2h-1zM39 79h1v2h-1zM41 79h1v2h-1zM30 80h1v1h-1zM32 80h2v1h-2zM31 81h2v1h-2z"></path><path fill="#1F2C48" d="M19 45h1v1h-1zM21 45h1v17h-1zM20 46h1v16h-1zM19 47h1v1h-1zM19 49h1v1h-1zM19 51h1v1h-1zM19 53h1v1h-1zM19 55h1v1h-1zM19 57h1v1h-1zM19 59h1v1h-1zM18 61h2v1h-2zM19 62h1v1h-1zM31 87h1v1h-1zM33 87h1v4h-1zM35 87h1v4h-1zM37 87h1v4h-1zM39 87h1v4h-1zM41 87h1v4h-1zM32 88h1v6h-1zM34 88h1v2h-1zM36 88h1v2h-1zM38 88h1v2h-1zM40 88h1v2h-1zM42 88h1v2h-1zM31 89h1v1h-1zM43 89h1v2h-1zM31 91h1v5h-1zM34 91h1v1h-1zM36 91h1v1h-1zM38 91h1v1h-1zM40 91h1v1h-1zM42 91h1v1h-1zM30 92h1v4h-1zM33 92h1v1h-1zM35 92h1v1h-1zM37 92h1v1h-1zM39 92h1v1h-1zM41 92h1v1h-1zM29 93h1v1h-1zM34 93h1v1h-1zM36 93h1v1h-1zM38 93h1v1h-1zM40 93h1v1h-1zM33 94h1v1h-1zM35 94h1v1h-1zM37 94h1v1h-1zM39 94h1v1h-1zM41 94h1v1h-1zM28 95h2v1h-2zM32 95h1v1h-1zM34 95h1v1h-1zM36 95h1v1h-1zM38 95h1v1h-1zM40 95h1v1h-1zM29 96h1v1h-1z"></path><path fill="#2A3A58" d="M23 45h1v1h-1zM25 45h1v21h-1zM27 45h1v4h-1zM24 46h1v20h-1zM26 46h1v2h-1zM28 46h1v2h-1zM23 47h1v1h-1zM29 47h1v2h-1zM23 49h1v1h-1zM26 49h1v1h-1zM28 49h1v1h-1zM27 50h1v1h-1zM29 50h1v1h-1zM23 51h1v1h-1zM26 51h1v1h-1zM28 51h1v1h-1zM27 52h1v1h-1zM29 52h1v1h-1zM23 53h1v1h-1zM26 53h1v1h-1zM28 53h1v1h-1zM27 54h1v1h-1zM23 55h1v1h-1zM26 55h1v1h-1zM27 56h1v1h-1zM23 57h1v1h-1zM26 57h1v1h-1zM27 58h1v1h-1zM23 59h1v1h-1zM26 59h1v1h-1zM27 60h1v1h-1zM23 61h1v1h-1zM26 61h1v1h-1zM23 63h1v1h-1zM22 65h2v1h-2zM23 66h1v1h-1z"></path><path fill="#161E30" d="M32 46h2v1h-2zM33 55h1v1h-1zM30 58h2v1h-2zM25 87h1v1h-1zM27 87h1v1h-1zM26 88h1v1h-1zM25 89h1v1h-1zM25 91h1v1h-1zM25 93h1v2h-1zM24 94h1v2h-1zM22 95h2v1h-2zM23 96h1v1h-1zM25 101h1v1h-1zM25 103h1v2h-1zM24 104h1v1h-1z"></path><path fill="#4E3A12" d="M42 46h1v2h-1zM44 46h1v2h-1zM41 47h1v1h-1zM43 47h1v1h-1zM45 47h1v1h-1zM40 48h1v1h-1zM47 63h1v1h-1zM43 79h1v2h-1zM34 80h1v2h-1zM36 80h1v2h-1zM38 80h1v2h-1zM40 80h1v2h-1zM42 80h1v2h-1zM33 81h1v1h-1zM35 81h1v1h-1zM37 81h1v1h-1zM39 81h1v1h-1zM41 81h1v1h-1z"></path><path fill="#0E1420" d="M32 47h1v1h-1zM33 57h1v1h-1zM32 58h1v1h-1zM30 59h1v1h-1zM27 88h1v1h-1zM26 89h1v1h-1zM25 95h1v1h-1zM22 96h1v1h-1zM24 96h1v2h-1zM23 97h1v1h-1zM24 105h1v1h-1z"></path><path fill="#080C14" d="M33 47h1v1h-1zM33 58h1v1h-1zM31 59h2v1h-2zM26 90h1v1h-1zM25 96h1v1h-1zM25 105h1v1h-1z"></path><path fill="#1C2842" d="M26 48h1v1h-1zM28 48h1v1h-1zM27 49h1v1h-1zM29 49h1v1h-1zM26 50h1v1h-1zM28 50h1v1h-1zM27 51h1v1h-1zM29 51h1v1h-1zM26 52h1v1h-1zM28 52h1v1h-1zM27 53h1v1h-1zM26 54h1v1h-1zM28 54h1v2h-1zM27 55h1v1h-1zM26 56h1v1h-1zM27 57h1v1h-1zM26 58h1v1h-1zM27 59h1v1h-1zM26 60h1v1h-1zM26 62h1v2h-1zM22 66h1v1h-1zM24 66h2v1h-2zM23 67h2v1h-2z"></path><path fill="#FFC53D" d="M41 49h1v1h-1zM43 49h1v13h-1zM42 50h1v12h-1zM44 50h1v2h-1zM41 51h1v1h-1zM45 51h1v2h-1zM41 53h1v1h-1zM44 53h1v1h-1zM45 54h1v1h-1zM41 55h1v1h-1zM44 55h1v1h-1zM45 56h1v1h-1zM41 57h1v1h-1zM44 57h1v1h-1zM45 58h1v1h-1zM41 59h1v1h-1zM44 59h1v1h-1zM45 60h1v1h-1zM41 61h1v2h-1zM44 61h1v1h-1zM40 62h1v1h-1z"></path><path fill="#C79A22" d="M44 52h1v1h-1zM45 53h1v1h-1zM44 54h1v1h-1zM45 55h1v1h-1zM44 56h1v1h-1zM45 57h1v1h-1zM44 58h1v1h-1zM45 59h1v1h-1zM44 60h1v1h-1zM45 61h1v2h-1zM42 62h2v1h-2zM40 63h1v1h-1z"></path><path fill="#0E1628" d="M29 53h1v2h-1zM28 56h1v1h-1zM27 61h1v2h-1zM21 64h1v3h-1zM26 64h1v1h-1zM22 67h1v1h-1zM25 67h1v1h-1zM23 68h2v1h-2z"></path><path fill="#243048" d="M32 54h2v1h-2zM32 55h1v3h-1zM33 56h1v1h-1zM31 57h1v1h-1zM25 86h2v1h-2zM24 87h1v7h-1zM26 87h1v1h-1zM25 88h1v1h-1zM25 90h1v1h-1zM25 92h1v1h-1zM23 93h1v2h-1zM24 100h2v1h-2zM24 101h1v3h-1zM25 102h1v1h-1z"></path><path fill="#141E34" d="M18 62h1v1h-1zM20 62h2v1h-2zM19 63h2v1h-2zM34 90h1v1h-1zM36 90h1v1h-1zM38 90h1v1h-1zM40 90h1v1h-1zM42 90h1v1h-1zM33 91h1v1h-1zM35 91h1v1h-1zM37 91h1v1h-1zM39 91h1v1h-1zM41 91h1v1h-1zM34 92h1v1h-1zM36 92h1v1h-1zM38 92h1v1h-1zM40 92h1v1h-1zM42 92h1v2h-1zM33 93h1v1h-1zM35 93h1v1h-1zM37 93h1v1h-1zM39 93h1v1h-1zM41 93h1v1h-1zM32 94h1v1h-1zM34 94h1v1h-1zM36 94h1v1h-1zM38 94h1v1h-1zM40 94h1v1h-1zM33 95h1v2h-1zM35 95h1v2h-1zM37 95h1v2h-1zM39 95h1v2h-1zM28 96h1v1h-1zM30 96h2v1h-2zM29 97h2v1h-2z"></path><path fill="#8A6A14" d="M44 62h1v2h-1zM41 63h3v1h-3zM45 63h1v1h-1z"></path></svg>