<svg xmlns="http://www.w3.org/2000/svg" viewBox="0 0 220 200" width="220" height="200">
<defs>
<filter id="_fw" x="-30%" y="-30%" width="160%" height="160%"><feColorMatrix type="matrix" values="1 0 0 0 0.52  0 1 0 0 0.45  0 0 1 0 0.4  0 0 0 1 0"/></filter>
<filter id="_fr" x="-30%" y="-30%" width="160%" height="160%"><feColorMatrix type="matrix" values="1 0 0 0 0.26  0 1 0 0 0.07  0 0 1 0 0.05  0 0 0 1 0"/></filter>
<filter id="_d1" x="-30%" y="-30%" width="160%" height="160%"><feColorMatrix type="saturate" values="0.6"/></filter>
<filter id="_d2" x="-30%" y="-30%" width="160%" height="160%"><feColorMatrix type="saturate" values="0.32"/><feComponentTransfer><feFuncR type="linear" slope=".72"/><feFuncG type="linear" slope=".72"/><feFuncB type="linear" slope=".8"/></feComponentTransfer></filter>
<filter id="_d3" x="-30%" y="-30%" width="160%" height="160%"><feColorMatrix type="saturate" values="0.1"/><feComponentTransfer><feFuncR type="linear" slope=".45"/><feFuncG type="linear" slope=".45"/><feFuncB type="linear" slope=".55"/></feComponentTransfer></filter>
<filter id="_blur" x="-100%" y="-100%" width="300%" height="300%"><feGaussianBlur stdDeviation="10"/></filter>
<filter id="_glow" x="-90%" y="-90%" width="280%" height="280%"><feGaussianBlur stdDeviation="3.4" result="b"/><feMerge><feMergeNode in="b"/><feMergeNode in="b"/><feMergeNode in="SourceGraphic"/></feMerge></filter>
<linearGradient id="stl" x1="0.1" y1="0" x2="0.9" y2="1"><stop offset="0%" stop-color="#D2DAE7"/><stop offset="18%" stop-color="#98A3B6"/><stop offset="50%" stop-color="#5A6376"/><stop offset="80%" stop-color="#2E3441"/><stop offset="100%" stop-color="#171B24"/></linearGradient>
<linearGradient id="stld" x1="0" y1="0" x2="1" y2="1"><stop offset="0%" stop-color="#5C6578"/><stop offset="55%" stop-color="#2A3040"/><stop offset="100%" stop-color="#10131b"/></linearGradient>
<linearGradient id="gld" x1="0" y1="0" x2="0.6" y2="1"><stop offset="0%" stop-color="#F4E2AC"/><stop offset="34%" stop-color="#C39C4C"/><stop offset="72%" stop-color="#82641F"/><stop offset="100%" stop-color="#4A3712"/></linearGradient>
<linearGradient id="crm" x1="0.1" y1="0" x2="0.9" y2="1"><stop offset="0%" stop-color="#C24551"/><stop offset="45%" stop-color="#7E1F28"/><stop offset="100%" stop-color="#2A0A0F"/></linearGradient>
<linearGradient id="bld" x1="0" y1="0" x2="1" y2="0"><stop offset="0%" stop-color="#3B4250"/><stop offset="26%" stop-color="#9BA7B9"/><stop offset="46%" stop-color="#F4F9FF"/><stop offset="66%" stop-color="#B4BFD0"/><stop offset="88%" stop-color="#525A68"/><stop offset="100%" stop-color="#282D37"/></linearGradient>
<linearGradient id="lth" x1="0" y1="0" x2="0" y2="1"><stop offset="0%" stop-color="#5D4429"/><stop offset="100%" stop-color="#231708"/></linearGradient>
<linearGradient id="wod" x1="0" y1="0" x2="1" y2="0"><stop offset="0%" stop-color="#8A6236"/><stop offset="45%" stop-color="#5B3E1E"/><stop offset="100%" stop-color="#2A1B0B"/></linearGradient>
<linearGradient id="grn" x1="0.1" y1="0" x2="0.9" y2="1"><stop offset="0%" stop-color="#6E8A54"/><stop offset="45%" stop-color="#3D5232"/><stop offset="100%" stop-color="#161F12"/></linearGradient>
<linearGradient id="wht" x1="0.1" y1="0" x2="0.9" y2="1"><stop offset="0%" stop-color="#F6F2E6"/><stop offset="42%" stop-color="#D3CBB6"/><stop offset="82%" stop-color="#8E8672"/><stop offset="100%" stop-color="#4B4638"/></linearGradient>
<linearGradient id="vio" x1="0.1" y1="0" x2="0.9" y2="1"><stop offset="0%" stop-color="#7A5DB5"/><stop offset="45%" stop-color="#412C6E"/><stop offset="100%" stop-color="#160E28"/></linearGradient>
<linearGradient id="skn" x1="0.2" y1="0" x2="0.9" y2="1"><stop offset="0%" stop-color="#F0CFAA"/><stop offset="55%" stop-color="#C79B70"/><stop offset="100%" stop-color="#7A5334"/></linearGradient>
<linearGradient id="hair" x1="0" y1="0" x2="1" y2="1"><stop offset="0%" stop-color="#6B4A2A"/><stop offset="55%" stop-color="#3A2614"/><stop offset="100%" stop-color="#150D06"/></linearGradient>
<linearGradient id="flm" x1="0" y1="1" x2="0.3" y2="0"><stop offset="0%" stop-color="#FFF3B0"/><stop offset="38%" stop-color="#FFA53C"/><stop offset="78%" stop-color="#E24E1B"/><stop offset="100%" stop-color="#7A1E0C" stop-opacity=".2"/></linearGradient>
<linearGradient id="nBody" x1="0" y1="0" x2="0.4" y2="1"><stop offset="0%" stop-color="#2B3850"/><stop offset="100%" stop-color="#101724"/></linearGradient><linearGradient id="nHelm" x1="0.1" y1="0" x2="0.7" y2="1"><stop offset="0%" stop-color="#3B4C6B"/><stop offset="45%" stop-color="#1E2839"/><stop offset="100%" stop-color="#0B0F18"/></linearGradient><linearGradient id="nDk" x1="0" y1="0" x2="0.5" y2="1"><stop offset="0%" stop-color="#1C2637"/><stop offset="100%" stop-color="#080C14"/></linearGradient></defs>
<ellipse cx="83.8" cy="192.0" rx="36.6" ry="5.0" fill="#2DE2E6" opacity="0.22"/><g filter="url(#_d1)"><g transform="translate(220,0) scale(-1,1)"><g transform="translate(83.83,151.81) rotate(15.30) scale(1.0000,1.0000)"><g transform="translate(0.00,0.00) rotate(-11.74)"><path d="M-12 0 L12 0 L11 22 L-11 22 Z" fill="#101724" stroke="#070A11" stroke-width="5.0" stroke-linejoin="round"/><g transform="translate(0.00,20.00) rotate(7.65)"><path d="M-11 0 L11 0 L12 20 L-12 20 Z" fill="#101724" stroke="#070A11" stroke-width="5.0" stroke-linejoin="round"/><path d="M-13 19 L16 19 L19 28 L-15 28 Z" fill="#141C2A" stroke="#070A11" stroke-width="5.0" stroke-linejoin="round"/><path d="M-11 28 L15 28 L14 32 L-10 32 Z" fill="#FF3CAC" opacity=".5" filter="url(#_glow)"/></g></g><g transform="translate(0.00,0.00) rotate(-3.06)"><g transform="translate(0.00,-26.00) rotate(11.48)"><path d="M-16 -6 L14 -12 L18 6 L-13 10 Z" fill="#1A2334" stroke="#070A11" stroke-width="5.0" stroke-linejoin="round"/><path d="M-9 0 L9 0 L8 18 L-8 18 Z" fill="#1A2334" stroke="#070A11" stroke-width="4.4" stroke-linejoin="round"/><g transform="translate(0.00,15.00) rotate(3.83)"><path d="M-8 0 L8 0 L7 18 L-7 18 Z" fill="#141C2A" stroke="#070A11" stroke-width="4.4" stroke-linejoin="round"/><g transform="translate(0.00,15.00)"><g transform="translate(0.00,0.00) rotate(96.00)"><path d="M-9 -6 L18 -12 L26 10 L-7 14 Z" fill="#1B2436" stroke="#070A11" stroke-width="4.6" stroke-linejoin="round"/><path d="M22 -8 L44 -10 L44 8 L22 8 Z" fill="#141C2A" stroke="#070A11" stroke-width="4.0" stroke-linejoin="round"/><ellipse cx="44" cy="0" rx="5" ry="9" fill="#050A11"/><ellipse cx="44" cy="0" rx="2.0" ry="5.0" fill="#FF3CAC" opacity="0.30" filter="url(#_glow)"/></g></g></g></g></g><g transform="translate(0.00,0.00) rotate(-3.06)"><path d="M-34 4 L-30 -40 L26 -46 L40 -30 L38 4 Z" fill="url(#nBody)" stroke="#070A11" stroke-width="5.4" stroke-linejoin="round"/><path d="M26 -46 L40 -30 L38 4 L28 4 L32 -30 Z" fill="#4A5F82" opacity=".38"/><g filter="url(#_glow)"><circle cx="0" cy="-20" r="24.0" fill="#FF3CAC" opacity="0.52"/></g><circle cx="0" cy="-20" r="19" fill="#080D16" stroke="#FF3CAC" stroke-width="3.4"/><circle cx="0" cy="-20" r="12.5" fill="#FF3CAC" opacity="0.75" filter="url(#_glow)"/><circle cx="-5" cy="-25" r="4" fill="#FFD6EE" opacity=".8"/><path d="M-34 4 L38 4 L42 16 L-36 16 Z" fill="url(#nDk)" stroke="#070A11" stroke-width="5.0" stroke-linejoin="round"/></g><g transform="translate(0.00,0.00) rotate(14.42)"><path d="M-12 0 L12 0 L11 22 L-11 22 Z" fill="#1B2436" stroke="#070A11" stroke-width="5.0" stroke-linejoin="round"/><g transform="translate(0.00,20.00) rotate(-5.74)"><path d="M-11 0 L11 0 L12 20 L-12 20 Z" fill="#1D2739" stroke="#070A11" stroke-width="5.0" stroke-linejoin="round"/><path d="M-13 19 L16 19 L19 28 L-15 28 Z" fill="#141C2A" stroke="#070A11" stroke-width="5.0" stroke-linejoin="round"/><path d="M-11 28 L15 28 L14 32 L-10 32 Z" fill="#FF3CAC" opacity=".5" filter="url(#_glow)"/></g></g><g transform="translate(0.00,0.00) rotate(-3.06)"></g><g transform="translate(0.00,0.00) rotate(-3.06)"><g transform="translate(0.00,-34.00) rotate(3.44)"><g transform="translate(0,-20) scale(0.94)"><path d="M-20 -4 L-16 -22 L4 -30 L20 -22 L18 -2 L-14 4 Z" fill="url(#nHelm)" stroke="#070A11" stroke-width="4.4" stroke-linejoin="round"/><path d="M-22 -18 L10 -24 L12 -12 L-20 -6 Z" fill="#050A11" stroke="#070A11" stroke-width="3.6" stroke-linejoin="round"/><path d="M-18 -16 L7 -21 L8 -14 L-17 -9 Z" fill="#2DE2E6" opacity="0.75" filter="url(#_glow)"/><path d="M4 -30 L-18 -62 L0 -52 L20 -30 Z" fill="#FF3CAC" opacity=".95" filter="url(#_glow)"/><path d="M12 -30 L-2 -60 L18 -46 L26 -28 Z" fill="#FF3CAC" opacity=".55" filter="url(#_glow)"/></g></g></g><g transform="translate(0.00,0.00) rotate(-3.06)"><g transform="translate(0.00,-26.00) rotate(-21.39)"><path d="M-16 -6 L14 -12 L18 6 L-13 10 Z" fill="#212D42" stroke="#070A11" stroke-width="5.0" stroke-linejoin="round"/><path d="M-9 0 L9 0 L8 18 L-8 18 Z" fill="#212D42" stroke="#070A11" stroke-width="4.4" stroke-linejoin="round"/><g transform="translate(0.00,15.00) rotate(5.74)"><path d="M-8 0 L8 0 L7 18 L-7 18 Z" fill="#1B2436" stroke="#070A11" stroke-width="4.4" stroke-linejoin="round"/><g transform="translate(0.00,15.00)"><g transform="translate(0.00,2.00) rotate(-10.00)"><path d="M-5 0 L7 -2 L20 6 L6 10 Z" fill="#1B2436" stroke="#070A11" stroke-width="4.4" stroke-linejoin="round"/></g><g transform="translate(0.00,2.00) rotate(12.00)"><path d="M-5 0 L7 2 L20 -6 L6 -10 Z" fill="#1B2436" stroke="#070A11" stroke-width="4.4" stroke-linejoin="round"/></g></g></g></g></g></g></g></g>
</svg>
