<svg xmlns="http://www.w3.org/2000/svg" viewBox="0 0 160 200" width="160" height="200">
<defs>
<filter id="_fw" x="-30%" y="-30%" width="160%" height="160%"><feColorMatrix type="matrix" values="1 0 0 0 0.52  0 1 0 0 0.45  0 0 1 0 0.4  0 0 0 1 0"/></filter>
<filter id="_fr" x="-30%" y="-30%" width="160%" height="160%"><feColorMatrix type="matrix" values="1 0 0 0 0.26  0 1 0 0 0.07  0 0 1 0 0.05  0 0 0 1 0"/></filter>
<filter id="_d1" x="-30%" y="-30%" width="160%" height="160%"><feColorMatrix type="saturate" values="0.6"/></filter>
<filter id="_d2" x="-30%" y="-30%" width="160%" height="160%"><feColorMatrix type="saturate" values="0.32"/><feComponentTransfer><feFuncR type="linear" slope=".72"/><feFuncG type="linear" slope=".72"/><feFuncB type="linear" slope=".8"/></feComponentTransfer></filter>
<filter id="_d3" x="-30%" y="-30%" width="160%" height="160%"><feColorMatrix type="saturate" values="0.1"/><feComponentTransfer><feFuncR type="linear" slope=".45"/><feFuncG type="linear" slope=".45"/><feFuncB type="linear" slope=".55"/></feComponentTransfer></filter>
<filter id="_blur" x="-100%" y="-100%" width="300%" height="300%"><feGaussianBlur stdDeviation="10"/></filter>
<filter id="_glow" x="-90%" y="-90%" width="280%" height="280%"><feGaussianBlur stdDeviation="3.4" result="b"/><feMerge><feMergeNode in="b"/><feMergeNode in="b"/><feMergeNode in="SourceGraphic"/></feMerge></filter>
<linearGradient id="stl" x1="0.1" y1="0" x2="0.9" y2="1"><stop offset="0%" stop-color="#D2DAE7"/><stop offset="18%" stop-color="#98A3B6"/><stop offset="50%" stop-color="#5A6376"/><stop offset="80%" stop-color="#2E3441"/><stop offset="100%" stop-color="#171B24"/></linearGradient>
<linearGradient id="stld" x1="0" y1="0" x2="1" y2="1"><stop offset="0%" stop-color="#5C6578"/><stop offset="55%" stop-color="#2A3040"/><stop offset="100%" stop-color="#10131b"/></linearGradient>
<linearGradient id="gld" x1="0" y1="0" x2="0.6" y2="1"><stop offset="0%" stop-color="#F4E2AC"/><stop offset="34%" stop-color="#C39C4C"/><stop offset="72%" stop-color="#82641F"/><stop offset="100%" stop-color="#4A3712"/></linearGradient>
<linearGradient id="crm" x1="0.1" y1="0" x2="0.9" y2="1"><stop offset="0%" stop-color="#C24551"/><stop offset="45%" stop-color="#7E1F28"/><stop offset="100%" stop-color="#2A0A0F"/></linearGradient>
<linearGradient id="bld" x1="0" y1="0" x2="1" y2="0"><stop offset="0%" stop-color="#3B4250"/><stop offset="26%" stop-color="#9BA7B9"/><stop offset="46%" stop-color="#F4F9FF"/><stop offset="66%" stop-color="#B4BFD0"/><stop offset="88%" stop-color="#525A68"/><stop offset="100%" stop-color="#282D37"/></linearGradient>
<linearGradient id="lth" x1="0" y1="0" x2="0" y2="1"><stop offset="0%" stop-color="#5D4429"/><stop offset="100%" stop-color="#231708"/></linearGradient>
<linearGradient id="wod" x1="0" y1="0" x2="1" y2="0"><stop offset="0%" stop-color="#8A6236"/><stop offset="45%" stop-color="#5B3E1E"/><stop offset="100%" stop-color="#2A1B0B"/></linearGradient>
<linearGradient id="grn" x1="0.1" y1="0" x2="0.9" y2="1"><stop offset="0%" stop-color="#6E8A54"/><stop offset="45%" stop-color="#3D5232"/><stop offset="100%" stop-color="#161F12"/></linearGradient>
<linearGradient id="wht" x1="0.1" y1="0" x2="0.9" y2="1"><stop offset="0%" stop-color="#F6F2E6"/><stop offset="42%" stop-color="#D3CBB6"/><stop offset="82%" stop-color="#8E8672"/><stop offset="100%" stop-color="#4B4638"/></linearGradient>
<linearGradient id="vio" x1="0.1" y1="0" x2="0.9" y2="1"><stop offset="0%" stop-color="#7A5DB5"/><stop offset="45%" stop-color="#412C6E"/><stop offset="100%" stop-color="#160E28"/></linearGradient>
<linearGradient id="skn" x1="0.2" y1="0" x2="0.9" y2="1"><stop offset="0%" stop-color="#F0CFAA"/><stop offset="55%" stop-color="#C79B70"/><stop offset="100%" stop-color="#7A5334"/></linearGradient>
<linearGradient id="hair" x1="0" y1="0" x2="1" y2="1"><stop offset="0%" stop-color="#6B4A2A"/><stop offset="55%" stop-color="#3A2614"/><stop offset="100%" stop-color="#150D06"/></linearGradient>
<linearGradient id="flm" x1="0" y1="1" x2="0.3" y2="0"><stop offset="0%" stop-color="#FFF3B0"/><stop offset="38%" stop-color="#FFA53C"/><stop offset="78%" stop-color="#E24E1B"/><stop offset="100%" stop-color="#7A1E0C" stop-opacity=".2"/></linearGradient>
</defs>
<ellipse cx="80.0" cy="192.0" rx="40.0" ry="5.5" fill="#000" opacity="0.60"/><g><g transform="translate(80.00,152.28) scale(1.0000,1.0000)"><g transform="translate(0.00,0.00) rotate(26.00)"><path d="M-8.0 0 L8.0 0 L7.0 20.0 L-7.0 20.0 Z" fill="url(#stld)" stroke="url(#stld)" stroke-width="3.0" stroke-linejoin="round"/><g transform="translate(0.00,20.00)"><path d="M-6.8 0 L6.8 0 L6.0 20.0 L-6.0 20.0 Z" fill="url(#stld)" stroke="url(#stld)" stroke-width="3.0" stroke-linejoin="round"/><path d="M-6 18 L7 18 L13 24 L13 27 L-9 28 Z" fill="#171B24" stroke="#171B24" stroke-width="2" stroke-linejoin="round"/></g></g><g transform="translate(0.00,0.00) rotate(3.00)"><g transform="translate(0.00,-26.00) rotate(24.00)"><path d="M-9 -3 C-9 -12 9 -14 11 -4 L9 4 C6 -3 -6 -2 -8 5 Z" fill="url(#stld)" stroke="url(#stld)" stroke-width="2" stroke-linejoin="round"/><path d="M-9 -3 C-9 -12 9 -14 11 -4 L10 -2 C7 -10 -7 -9 -8 -1 Z" fill="#E4EBF7" opacity=".35"/><path d="M-4.5 0 L4.5 0 L4.0 15.0 L-4.0 15.0 Z" fill="url(#stld)" stroke="url(#stld)" stroke-width="3.0" stroke-linejoin="round"/><g transform="translate(0.00,15.00) rotate(16.00)"><path d="M-4.0 0 L4.0 0 L3.5 15.0 L-3.5 15.0 Z" fill="url(#stld)" stroke="url(#stld)" stroke-width="3.0" stroke-linejoin="round"/><circle cx="0" cy="15" r="4.4" fill="url(#lth)"/><g transform="translate(0.00,15.00)"><g transform="translate(0.00,0.00) rotate(66.00)"><g transform="translate(0,0.0)"><path d="M-2.6 44 L2.6 44 L2.6 -70 L-2.6 -70 Z" fill="url(#wod)"/><path d="M0.6 40 L1.4 -66" stroke="#C79556" stroke-width="1.2" opacity=".45"/><path d="M-2.6 -70 L2.6 -70 L1 -86 L-1 -86 Z" fill="url(#bld)"/><path d="M2 -58 C14 -62 22 -54 20 -42 C13 -49 8 -52 1 -52 Z" fill="url(#bld)"/><path d="M2 -58 C12 -61 19 -55 18 -46 C11 -51 7 -53 1 -53 Z" fill="#F2F7FF" opacity=".45"/><path d="M-2 -50 L-10 -42 L-6 -38 L0 -46 Z" fill="url(#stld)"/><rect x="-3.6" y="-16" width="7.2" height="12" rx="2" fill="url(#lth)"/><rect x="-3.6" y="14" width="7.2" height="12" rx="2" fill="url(#lth)"/></g></g></g></g></g></g><g transform="translate(0.00,0.00) rotate(3.00)"><path d="M-19 2 C-21 -14 -19 -28 -14 -34 L14 -34 C19 -28 21 -14 19 2 Z" fill="url(#stl)" stroke="url(#stl)" stroke-width="3" stroke-linejoin="round"/><path d="M8 -33 C15 -20 17 -8 16 2 L19 2 C21 -12 19 -26 14 -34 Z" fill="#DCE5F2" opacity=".3"/><path d="M-14 -33 C-19 -20 -21 -8 -19 2 L-15 2 C-16 -10 -16 -22 -11 -33 Z" fill="#000" opacity=".33"/><path d="M0 -32 C-3 -20 -3 -8 0 1" stroke="#12151d" stroke-width="1.8" fill="none" opacity=".55"/><path d="M-20 0 L20 0 L23 11 L-23 11 Z" fill="url(#stld)"/><path d="M-20 0 L20 0 L20.5 2.8 L-20.5 2.8 Z" fill="#A3AEC0" opacity=".4"/><rect x="-20" y="-4" width="40" height="6.2" rx="1.8" fill="url(#lth)"/><rect x="-2" y="-5.4" width="9" height="8" rx="1.6" fill="url(#gld)"/></g><g transform="translate(0.00,0.00) rotate(-26.00)"><path d="M-8.0 0 L8.0 0 L7.0 20.0 L-7.0 20.0 Z" fill="url(#stl)" stroke="url(#stl)" stroke-width="3.0" stroke-linejoin="round"/><g transform="translate(0.00,20.00) rotate(16.78)"><path d="M-6.8 0 L6.8 0 L6.0 20.0 L-6.0 20.0 Z" fill="url(#stl)" stroke="url(#stl)" stroke-width="3.0" stroke-linejoin="round"/><path d="M-6 18 L7 18 L13 24 L13 27 L-9 28 Z" fill="#171B24" stroke="#171B24" stroke-width="2" stroke-linejoin="round"/><path d="M-5 18 L-2 18 L-3 26 L-6 26 Z" fill="#C9D3E1" opacity=".3"/></g></g><g transform="translate(0.00,0.00) rotate(3.00)"></g><g transform="translate(0.00,0.00) rotate(3.00)"><g transform="translate(0.00,-34.00) rotate(-2.00)"><g transform="translate(0,-20) scale(0.94)"><path d="M-30 -8 C-30 -44 -16 -62 2 -62 C20 -62 32 -50 35 -32 C37 -18 34 -4 24 4 C14 12 -10 14 -22 6 C-28 1 -30 -3 -30 -8 Z" fill="url(#skn)"/><path d="M-30 -8 C-30 -22 -26 -34 -20 -44 C-26 -32 -28 -20 -26 -6 C-24 6 -16 14 -4 19 C-18 17 -29 4 -30 -8 Z" fill="#000" opacity=".38"/><ellipse cx="18" cy="-20" rx="4.8" ry="3.4" fill="#2A1B10"/><ellipse cx="19.4" cy="-21" rx="1.3" ry="1" fill="#fff" opacity=".75"/><path d="M16 -2 C22 -4 28 -4 31 -2" stroke="#8B5A38" stroke-width="2.1" fill="none" stroke-linecap="round"/><path d="M-54 -30 C-40 -56 -6 -68 20 -60 C38 -54 48 -42 50 -30 C32 -40 16 -44 -2 -42 C-22 -40 -40 -36 -54 -30 Z" fill="url(#stl)"/><path d="M-46 -34 C-32 -54 -4 -62 18 -56 C30 -52 38 -46 42 -38 C28 -48 10 -52 -8 -50 C-24 -48 -36 -42 -46 -34 Z" fill="#EAF0FB" opacity=".38"/><path d="M-54 -30 C-34 -38 -2 -44 24 -40 C38 -38 46 -34 50 -30 C46 -24 32 -22 12 -22 C-18 -22 -42 -24 -54 -30 Z" fill="url(#stld)"/><path d="M-54 -30 C-34 -38 -2 -44 24 -40 C38 -38 46 -34 50 -30 L49 -28.4 C40 -34 20 -38 -2 -38 C-26 -38 -46 -34 -53.4 -29 Z" fill="#A3AEC0" opacity=".45"/><path d="M-22 6 C-10 15 12 13 24 4 L25 12 C13 22 -10 23 -23 14 Z" fill="url(#stld)"/></g></g></g><g transform="translate(0.00,0.00) rotate(3.00)"><g transform="translate(0.00,-26.00) rotate(-22.00)"><path d="M-9 -3 C-9 -12 9 -14 11 -4 L9 4 C6 -3 -6 -2 -8 5 Z" fill="url(#stl)" stroke="url(#stl)" stroke-width="2" stroke-linejoin="round"/><path d="M-9 -3 C-9 -12 9 -14 11 -4 L10 -2 C7 -10 -7 -9 -8 -1 Z" fill="#E4EBF7" opacity=".35"/><path d="M-4.5 0 L4.5 0 L4.0 15.0 L-4.0 15.0 Z" fill="url(#stl)" stroke="url(#stl)" stroke-width="3.0" stroke-linejoin="round"/><g transform="translate(0.00,15.00) rotate(10.00)"><path d="M-4.0 0 L4.0 0 L3.5 15.0 L-3.5 15.0 Z" fill="url(#stl)" stroke="url(#stl)" stroke-width="3.0" stroke-linejoin="round"/><circle cx="0" cy="15" r="4.4" fill="url(#lth)"/><g transform="translate(0.00,15.00)"></g></g></g></g></g></g>
</svg>
